<svg width="96" height="96" viewBox="0 0 96 96" fill="none" xmlns="http://www.w3.org/2000/svg">
<path d="M48 0L96 48L48 96L0 48L48 0Z" fill="#F7CC00"/>
<path fill-rule="evenodd" clip-rule="evenodd" d="M48 40C48.5523 40 49 40.4477 49 41V55C49 55.5523 48.5523 56 48 56C47.4477 56 47 55.5523 47 55V41C47 40.4477 47.4477 40 48 40Z" fill="#252529"/>
<path fill-rule="evenodd" clip-rule="evenodd" d="M40.2929 47.2929C40.6834 46.9024 41.3166 46.9024 41.7071 47.2929L48 53.5858L54.2929 47.2929C54.6834 46.9024 55.3166 46.9024 55.7071 47.2929C56.0976 47.6834 56.0976 48.3166 55.7071 48.7071L48.7071 55.7071C48.3166 56.0976 47.6834 56.0976 47.2929 55.7071L40.2929 48.7071C39.9024 48.3166 39.9024 47.6834 40.2929 47.2929Z" fill="black"/>
</svg>
