<svg width="16" height="16" viewBox="0 0 16 16" fill="none" xmlns="http://www.w3.org/2000/svg">
<path fill-rule="evenodd" clip-rule="evenodd" d="M7.17157 1.83826C7.92172 1.08811 8.93913 0.666687 10 0.666687H12C12.3682 0.666687 12.6667 0.965164 12.6667 1.33335V4.00002C12.6667 4.36821 12.3682 4.66669 12 4.66669H10V6.00002H12C12.2053 6.00002 12.3991 6.0946 12.5255 6.25641C12.6518 6.41822 12.6966 6.62922 12.6468 6.82838L11.9801 9.49504C11.9059 9.79182 11.6392 10 11.3333 10H10V14.6667C10 15.0349 9.70152 15.3334 9.33333 15.3334H6.66667C6.29848 15.3334 6 15.0349 6 14.6667V10H4.66667C4.29848 10 4 9.70154 4 9.33335V6.66669C4 6.2985 4.29848 6.00002 4.66667 6.00002H6V4.66669C6 3.60582 6.42143 2.58841 7.17157 1.83826ZM10 2.00002C9.29276 2.00002 8.61448 2.28097 8.11438 2.78107C7.61428 3.28117 7.33333 3.95944 7.33333 4.66669V6.66669C7.33333 7.03488 7.03486 7.33335 6.66667 7.33335H5.33333V8.66669H6.66667C7.03486 8.66669 7.33333 8.96516 7.33333 9.33335V14H8.66667V9.33335C8.66667 8.96516 8.96514 8.66669 9.33333 8.66669H10.8128L11.1461 7.33335H9.33333C8.96514 7.33335 8.66667 7.03488 8.66667 6.66669V4.66669C8.66667 4.31306 8.80714 3.97393 9.05719 3.72388C9.30724 3.47383 9.64638 3.33335 10 3.33335H11.3333V2.00002H10Z" fill="#62626B"/>
</svg>
