<svg width="16" height="16" viewBox="0 0 16 16" fill="none" xmlns="http://www.w3.org/2000/svg">
<path fill-rule="evenodd" clip-rule="evenodd" d="M4.66669 2.00002C3.19393 2.00002 2.00002 3.19393 2.00002 4.66669V11.3334C2.00002 12.8061 3.19393 14 4.66669 14H11.3334C12.8061 14 14 12.8061 14 11.3334V4.66669C14 3.19393 12.8061 2.00002 11.3334 2.00002H4.66669ZM0.666687 4.66669C0.666687 2.45755 2.45755 0.666687 4.66669 0.666687H11.3334C13.5425 0.666687 15.3334 2.45755 15.3334 4.66669V11.3334C15.3334 13.5425 13.5425 15.3334 11.3334 15.3334H4.66669C2.45755 15.3334 0.666687 13.5425 0.666687 11.3334V4.66669Z" fill="#62626B"/>
<path fill-rule="evenodd" clip-rule="evenodd" d="M8.3222 5.99279C7.90608 5.93108 7.48109 6.00216 7.10769 6.19591C6.73429 6.38966 6.43149 6.69621 6.24236 7.07197C6.05323 7.44773 5.9874 7.87356 6.05423 8.28889C6.12107 8.70422 6.31716 9.08791 6.61462 9.38537C6.91208 9.68283 7.29576 9.87892 7.71109 9.94575C8.12642 10.0126 8.55225 9.94675 8.92801 9.75762C9.30377 9.56849 9.61033 9.26569 9.80408 8.89229C9.99783 8.5189 10.0689 8.09391 10.0072 7.67779C9.94426 7.25333 9.74647 6.86036 9.44305 6.55694C9.13963 6.25352 8.74666 6.05573 8.3222 5.99279ZM6.4936 5.01241C7.11593 4.68949 7.82424 4.57103 8.51778 4.67388C9.22521 4.77878 9.88015 5.10843 10.3859 5.61413C10.8916 6.11983 11.2212 6.77477 11.3261 7.48221C11.429 8.17575 11.3105 8.88406 10.9876 9.50639C10.6647 10.1287 10.1537 10.6334 9.52747 10.9486C8.9012 11.2638 8.19148 11.3735 7.49927 11.2622C6.80705 11.1508 6.16758 10.8239 5.67181 10.3282C5.17604 9.83241 4.84922 9.19294 4.73783 8.50072C4.62645 7.8085 4.73617 7.09879 5.05138 6.47252C5.3666 5.84625 5.87127 5.33533 6.4936 5.01241Z" fill="#62626B"/>
</svg>
