<svg width="90" height="90" viewBox="0 0 90 90" fill="none" xmlns="http://www.w3.org/2000/svg">
<path d="M86 42.9999L44.5 66.8999L4 42.9999V46.9999C4 47.9999 4.5 48.9999 5.4 49.4999L40.6 69.8999C43 71.2999 45.9 71.2999 48.3 69.8999L84.6 48.9999C85.5 48.4999 86 47.4999 86 46.4999V42.8999V42.9999Z" fill="url(#paint0_linear)"/>
<path d="M45.6 66.7999L4 42.9999V46.9999C4 47.9999 4.5 48.9999 5.4 49.4999L40.6 69.8999C41.6 70.4999 43.3 70.9999 45.2 70.8999L45.6 66.7999Z" fill="url(#paint1_linear)"/>
<path d="M86 42.9007V43.1982C85.9002 43.9916 85.5009 44.785 84.7024 45.2809L82.0073 46.7685L48.3688 66.1073C46.2727 67.2974 43.6774 67.2974 41.5813 66.1073L5.34754 45.2809C3.55082 44.2891 3.55082 41.7106 5.34754 40.7189L41.5813 19.8924C43.6774 18.7024 46.2727 18.7024 48.3688 19.8924L82.706 39.628L84.7024 40.7189C85.5009 41.2148 86 42.0081 86 42.9007Z" fill="url(#paint2_linear)"/>
<path d="M86 43.2698L85.5 44.9998L81 48.9698L67 43.2698L73.4 39.5698C75.5581 40.1179 80 39.7698 86 43.2698Z" fill="url(#paint3_linear)"/>
<path d="M73.5 26.5698V39.5698C73.5 39.6698 73.4 39.8698 73.3 39.9698L67.8 43.1698C67.4 43.3698 67 43.3698 66.6 43.1698L61.3 40.0698C61.2 39.9698 61.1 39.8698 61.1 39.6698V26.6698L67.2 30.2698L68.9 29.2698L73 26.8698L73.5 26.5698Z" fill="url(#paint4_linear)"/>
<path d="M67.3 30.2698L61 26.6698V39.6698C61 39.8698 61.1 39.9698 61.2 40.0698L66.5 43.1698C66.7 43.2698 66.9 43.3698 67.2 43.2698L67.3 30.2698Z" fill="url(#paint5_linear)"/>
<path d="M67.8 23.1698L73.3 26.3698C73.6 26.5698 73.6 26.8698 73.3 27.0698L67.8 30.1698C67.5 30.3698 67.1 30.3698 66.8 30.1698L61.3 26.9698C61 26.7698 61 26.4698 61.3 26.2698L66.8 23.0698C67.1 22.9698 67.5 22.9698 67.8 23.1698Z" fill="url(#paint6_linear)"/>
<path d="M73.4999 26.8698V31.0698L69.2 29.3698L68.8999 29.2698L67.2 28.5698L70.6 26.5698L72.9999 26.8698H73.3999H73.4999Z" fill="url(#paint7_linear)"/>
<path d="M70.6 22.8699L67.3 24.7699L64.1 22.8699V26.5699C64.1 26.6699 64.1 26.7699 64.2 26.7699L67 28.3699C67.2 28.4699 67.4 28.4699 67.6 28.3699L70.5 26.6699C70.6 26.6699 70.6 26.5699 70.6 26.4699V22.8699Z" fill="url(#paint8_linear)"/>
<path d="M67.4 24.7699L64.1 22.8699V26.5699C64.1 26.6699 64.1 26.7699 64.2 26.7699L67 28.3699C67.1 28.3699 67.2 28.4699 67.4 28.4699V24.7699Z" fill="url(#paint9_linear)"/>
<path d="M67.6 21.0699L70.5 22.7699C70.6 22.8699 70.6 23.0699 70.5 23.1699L67.6 24.8699C67.4 24.9699 67.2 24.9699 67.1 24.8699L64.2 23.1699C64.1 23.0699 64.1 22.8699 64.2 22.7699L67.1 21.0699C67.2 20.9699 67.5 20.9699 67.6 21.0699Z" fill="url(#paint10_linear)"/>
<g opacity="0.8">
<path opacity="0.05" d="M42.9901 19.3748C42.9901 22.0004 40.8867 24.1449 38.2674 24.1449C35.6679 24.1449 33.5447 22.0004 33.5447 19.3748C33.5447 16.7291 35.6679 14.6046 38.2674 14.6046C40.8867 14.6046 42.9901 16.7291 42.9901 19.3748Z" fill="white"/>
<path opacity="0.1" d="M42.1171 19.4349C42.1171 21.5795 40.3907 23.3232 38.2675 23.3232C36.1442 23.3232 34.4178 21.5795 34.4178 19.4349C34.4178 17.2903 36.1442 15.5466 38.2675 15.5466C40.3907 15.5466 42.1171 17.2903 42.1171 19.4349Z" fill="white"/>
<path opacity="0.15" d="M41.244 19.495C41.244 21.1586 39.9145 22.5014 38.2675 22.5014C36.6205 22.5014 35.291 21.1586 35.291 19.495C35.291 17.8315 36.6205 16.4886 38.2675 16.4886C39.9145 16.4886 41.244 17.8315 41.244 19.495Z" fill="white"/>
<path opacity="0.2" d="M40.3709 19.5552C40.3709 20.7177 39.4382 21.6797 38.2675 21.6797C37.1165 21.6797 36.1641 20.7377 36.1641 19.5552C36.1641 18.3727 37.1165 17.4307 38.2675 17.4307C39.4382 17.4307 40.3709 18.3727 40.3709 19.5552Z" fill="white"/>
<path opacity="0.25" d="M39.4977 19.6152C39.4977 20.2967 38.9421 20.8578 38.2674 20.8578C37.5927 20.8578 37.0371 20.2967 37.0371 19.6152C37.0371 18.9338 37.5927 18.3726 38.2674 18.3726C38.9421 18.3726 39.4977 18.9137 39.4977 19.6152Z" fill="white"/>
<path opacity="0.3" d="M38.6246 19.6753C38.6246 19.8758 38.4659 20.0361 38.2675 20.0361C38.069 20.0361 37.9103 19.8758 37.9103 19.6753C37.9103 19.4749 38.069 19.3146 38.2675 19.3146C38.4659 19.3146 38.6246 19.4749 38.6246 19.6753Z" fill="white"/>
</g>
<g opacity="0.1">
<path opacity="0.1" d="M24 46.8132L41.9582 56.9949L61.1269 46.1919L42.2162 35.3889L24 46.8132Z" fill="black"/>
</g>
<path d="M77.5 48.9949L54 62.9949L40 55.9949L31.5 50.4949L27 46.4949L40.8571 29.9949L56.2143 31.7502L56.5 41.4949C59.3571 43.2502 63.5 43.9949 77.5 48.9949Z" fill="url(#paint11_linear)"/>
<path d="M60.4325 24.8865C60.4325 24.8264 60.4325 24.7462 60.4325 24.6861C60.4325 24.646 60.4325 24.626 60.4325 24.5859C60.4325 24.5658 60.4325 24.5658 60.4325 24.5458C60.4325 24.5258 60.4325 24.5057 60.4325 24.4656C60.4325 24.4055 60.4126 24.3253 60.4126 24.2652C60.4126 24.2051 60.3928 24.1249 60.373 24.0447C60.3531 23.9846 60.3531 23.9044 60.3333 23.8443C60.3134 23.7641 60.3134 23.704 60.2936 23.6238C60.2936 23.6038 60.2737 23.5637 60.2737 23.5437C60.2737 23.5236 60.2737 23.5236 60.2737 23.5036C60.2737 23.4635 60.2539 23.4435 60.2539 23.4034C60.2341 23.3232 60.2142 23.2631 60.1944 23.1829C60.1745 23.1228 60.1547 23.0827 60.1547 23.0226C60.1547 23.0025 60.1547 23.0025 60.1348 22.9825V22.9624C60.115 22.8823 60.0952 22.8221 60.0753 22.742C60.0555 22.6618 60.0356 22.6017 59.9959 22.5215C59.9959 22.5014 59.9959 22.5014 59.9761 22.4814C59.9761 22.4614 59.9761 22.4614 59.9562 22.4413C59.9364 22.4012 59.9166 22.3611 59.8967 22.301C59.8769 22.2409 59.8372 22.1607 59.8173 22.1006C59.7975 22.0605 59.7777 22.0004 59.7578 21.9603C59.7578 21.9603 59.7578 21.9403 59.738 21.9403C59.738 21.9202 59.738 21.9202 59.7181 21.9002C59.6983 21.84 59.6586 21.7599 59.6189 21.6997C59.5792 21.6196 59.5594 21.5594 59.5197 21.4793C59.5197 21.4592 59.4998 21.4592 59.4998 21.4392C59.4998 21.4191 59.48 21.4191 59.48 21.3991C59.4403 21.339 59.4205 21.2788 59.3808 21.2187C59.3411 21.1385 59.3014 21.0784 59.2617 20.9982C59.2419 20.9582 59.222 20.9381 59.2022 20.898C59.2022 20.878 59.1824 20.8579 59.1824 20.8379C59.1427 20.7778 59.103 20.7177 59.0633 20.6575C59.0038 20.5774 58.9641 20.4771 58.9045 20.397C58.9045 20.3769 58.8847 20.3769 58.8847 20.3569C58.8053 20.2366 58.726 20.1164 58.6267 19.9961C58.5672 19.9159 58.5077 19.8358 58.4482 19.7556C58.3886 19.6955 58.3489 19.6153 58.2894 19.5552C58.2299 19.495 58.1902 19.4349 58.1307 19.3748C58.0711 19.3147 58.0314 19.2545 57.9719 19.1944L57.9521 19.1744C57.9521 19.1543 57.9322 19.1543 57.9322 19.1343C57.8925 19.0942 57.8529 19.0541 57.8132 19.014C57.7536 18.9539 57.6941 18.8938 57.6346 18.8336C57.6147 18.8136 57.5949 18.7936 57.575 18.7735C57.5552 18.7535 57.5552 18.7535 57.5354 18.7334C57.4957 18.7134 57.4758 18.6733 57.456 18.6533C57.3965 18.5931 57.3369 18.553 57.2774 18.4929C57.2576 18.4729 57.2179 18.4528 57.198 18.4328C57.1782 18.4328 57.1782 18.4127 57.1583 18.4127C57.1385 18.3927 57.1186 18.3727 57.0988 18.3526C57.0393 18.3125 56.9797 18.2524 56.9202 18.2123C56.8805 18.1722 56.821 18.1522 56.7813 18.1121C56.7813 18.1121 56.7813 18.1121 56.7615 18.1121C56.7416 18.1121 56.7416 18.0921 56.7416 18.0921C56.6821 18.052 56.6226 18.0119 56.563 17.9718C56.5035 17.9317 56.444 17.8916 56.3844 17.8716C56.3646 17.8716 56.3646 17.8516 56.3448 17.8516C56.3051 17.8315 56.2654 17.8115 56.2059 17.7714C56.1463 17.7313 56.0868 17.7113 56.0273 17.6912C55.9876 17.6712 55.9479 17.6511 55.9082 17.6311C55.9082 17.6311 55.9082 17.6311 55.8884 17.6311C55.8685 17.6311 55.8685 17.611 55.8487 17.611C55.7891 17.591 55.7296 17.571 55.6899 17.5509C55.6304 17.5309 55.5709 17.5108 55.5312 17.4908H55.5113H55.4915C55.4518 17.4707 55.4121 17.4707 55.3724 17.4507C55.3129 17.4307 55.2534 17.4106 55.1938 17.4106C55.174 17.4106 55.1343 17.3906 55.1145 17.3906C55.0946 17.3906 55.0946 17.3906 55.0748 17.3906C55.0549 17.3906 55.0351 17.3906 55.0153 17.3705C54.9557 17.3505 54.8962 17.3505 54.8367 17.3505C54.797 17.3505 54.7573 17.3505 54.7374 17.3304C54.7176 17.3304 54.7176 17.3304 54.6978 17.3304C54.6779 17.3304 54.6779 17.3304 54.6581 17.3304C54.5985 17.3304 54.539 17.3304 54.4596 17.3304C54.4398 17.3304 54.4001 17.3304 54.3803 17.3304C54.3604 17.3304 54.3207 17.3304 54.3009 17.3304C54.2811 17.3304 54.2612 17.3304 54.2414 17.3304C54.162 17.3304 54.0826 17.3505 54.0032 17.3705C53.9636 17.3705 53.9437 17.3906 53.904 17.3906C53.8445 17.4106 53.785 17.4307 53.7254 17.4507H53.7056C53.6858 17.4507 53.6659 17.4707 53.6461 17.4707C53.5468 17.5108 53.4675 17.5509 53.3881 17.591L51.5228 18.6933C51.6022 18.6332 51.7014 18.5931 51.8006 18.553C51.8205 18.553 51.8205 18.553 51.8403 18.533C51.9197 18.4929 51.9991 18.4729 52.0983 18.4528C52.1181 18.4528 52.138 18.4328 52.1578 18.4328C52.257 18.4127 52.3562 18.3927 52.4753 18.3927C52.4952 18.3927 52.515 18.3927 52.5348 18.3927C52.6341 18.3927 52.7531 18.3927 52.8523 18.3927C52.8722 18.3927 52.8722 18.3927 52.892 18.3927C53.0111 18.4127 53.1301 18.4127 53.2294 18.4528C53.2492 18.4528 53.2492 18.4528 53.269 18.4528C53.3881 18.4729 53.5072 18.513 53.6262 18.553H53.6461C53.7651 18.5931 53.904 18.6533 54.0429 18.7134C54.0628 18.7134 54.0628 18.7334 54.0826 18.7334C54.2215 18.7936 54.3604 18.8737 54.4795 18.9539C54.6184 19.0341 54.7573 19.1142 54.8962 19.2145C54.916 19.2145 54.916 19.2345 54.9359 19.2345C55.0549 19.3147 55.174 19.4149 55.2931 19.5151C55.3129 19.5351 55.3327 19.5552 55.3526 19.5552C55.4717 19.6554 55.5907 19.7556 55.6899 19.8558C55.7098 19.8759 55.7098 19.8759 55.7296 19.8959C55.8487 20.0162 55.9677 20.1164 56.067 20.2366L56.0868 20.2567C56.2059 20.3769 56.3249 20.5172 56.444 20.6575L56.4638 20.6776C56.5829 20.8179 56.6821 20.9582 56.7813 21.0985C56.7813 21.1185 56.8012 21.1185 56.8012 21.1385C56.9004 21.2588 56.9797 21.3991 57.0591 21.5194C57.1187 21.5995 57.1782 21.6997 57.2377 21.8C57.2774 21.8801 57.3369 21.9403 57.3766 22.0204C57.3965 22.0605 57.4163 22.1006 57.4361 22.1407C57.5155 22.2609 57.575 22.4012 57.6346 22.5215C57.6346 22.5415 57.6544 22.5616 57.6544 22.5616C57.7338 22.7219 57.8132 22.8823 57.8727 23.0426C57.8727 23.0426 57.8727 23.0626 57.8925 23.0626C57.9521 23.223 58.0314 23.3833 58.091 23.5437V23.5637C58.1505 23.724 58.21 23.9044 58.2497 24.0648C58.2497 24.0848 58.2497 24.0848 58.2497 24.1049C58.2894 24.2652 58.3291 24.4255 58.3688 24.5859C58.3688 24.6059 58.3688 24.6059 58.3886 24.626C58.4283 24.7863 58.468 24.9667 58.4878 25.127C58.5077 25.2874 58.5275 25.4477 58.5474 25.6281C58.5474 25.6481 58.5474 25.6481 58.5474 25.6682C58.5672 25.8285 58.5672 25.9889 58.5672 26.1492C58.5672 26.3095 58.5672 26.4699 58.5474 26.6102C58.5474 26.6302 58.5474 26.6302 58.5474 26.6503C58.5275 26.7906 58.5077 26.9108 58.4878 27.0511C58.4878 27.0712 58.4878 27.0912 58.4878 27.0912C58.468 27.2115 58.4283 27.3317 58.4085 27.4319C58.4085 27.452 58.3886 27.472 58.3886 27.4921C58.3489 27.5923 58.3092 27.6925 58.2696 27.7927C58.2696 27.7927 58.2696 27.8127 58.2497 27.8127C58.1902 27.913 58.1505 28.0332 58.091 28.1134C58.091 28.1334 58.0711 28.1334 58.0711 28.1535C58.0116 28.2336 57.9719 28.2938 57.9124 28.3739C57.8925 28.394 57.8727 28.414 57.8529 28.4341C57.7933 28.4942 57.7536 28.5343 57.6941 28.5944C57.6743 28.6145 57.6544 28.6345 57.6346 28.6545C57.5552 28.7147 57.4758 28.7748 57.3965 28.8149L59.2617 27.7125C59.3411 27.6524 59.4205 27.6123 59.4998 27.5522C59.5197 27.5321 59.5395 27.5121 59.5594 27.4921C59.6189 27.452 59.6586 27.3919 59.7181 27.3317C59.738 27.3117 59.7578 27.2916 59.7777 27.2716C59.8372 27.2115 59.8967 27.1313 59.9364 27.0511C59.9364 27.0311 59.9562 27.0311 59.9562 27.011C60.0158 26.9309 60.0555 26.8307 60.115 26.7304C60.115 26.7304 60.115 26.7304 60.115 26.7104C60.115 26.7104 60.115 26.6904 60.1348 26.6904C60.1547 26.6302 60.1944 26.5701 60.2142 26.4899C60.2341 26.4498 60.2341 26.4298 60.2539 26.3897C60.2539 26.3697 60.2737 26.3496 60.2737 26.3296C60.2737 26.3095 60.2936 26.2895 60.2936 26.2695C60.3134 26.1893 60.3333 26.1292 60.3531 26.049C60.3531 26.029 60.373 25.9889 60.373 25.9688C60.373 25.9488 60.373 25.9287 60.373 25.9287C60.373 25.9087 60.3928 25.8686 60.3928 25.8486C60.4126 25.7884 60.4126 25.7083 60.4126 25.6481C60.4126 25.6081 60.4126 25.568 60.4325 25.5279C60.4325 25.5078 60.4325 25.5078 60.4325 25.4878C60.4325 25.4678 60.4325 25.4477 60.4325 25.4477C60.4325 25.3876 60.4325 25.3275 60.4523 25.2473C60.4523 25.1872 60.4523 25.107 60.4523 25.0469C60.4523 25.0469 60.4523 25.0469 60.4523 25.0268C60.4325 25.0068 60.4325 24.9466 60.4325 24.8865Z" fill="url(#paint12_linear)"/>
<path d="M54.5198 18.8945C56.8018 20.2173 58.6473 23.4642 58.6473 26.1099C58.6473 28.7555 56.782 29.8378 54.5 28.4949C52.218 27.1721 50.3726 23.9453 50.3726 21.2796C50.3924 18.634 52.2379 17.5516 54.5198 18.8945Z" fill="#4D4D54"/>
<path d="M55.2136 21.2989C55.2136 17.9317 54.023 15.5667 52.118 14.4643L47.1373 11.5381C49.0423 12.6605 50.213 15.0255 50.2329 18.3927L50.213 21.1986V21.9202L55.1937 24.8464V24.1249L55.2136 21.2989Z" fill="#C3C5C5"/>
<path d="M55.2136 21.2989L55.1937 24.1049V24.8264L55.8485 24.4456V20.9181C55.8287 16.2482 53.6856 13.4021 50.4908 12.9612V13.823C53.3284 14.4043 55.1937 17.0499 55.2136 21.2989Z" fill="#BAC1C5"/>
<path d="M58.8846 27.5523C58.8846 27.4721 58.8846 27.3719 58.8648 27.2917C58.8648 27.2516 58.8648 27.2116 58.8648 27.1715C58.8648 27.1514 58.8648 27.1314 58.8648 27.1113C58.8648 27.0913 58.8648 27.0512 58.8648 27.0312C58.8648 26.951 58.8449 26.8508 58.8449 26.7706C58.8251 26.6904 58.8251 26.5902 58.8052 26.5101C58.7854 26.4299 58.7854 26.3497 58.7655 26.2495C58.7457 26.1693 58.7259 26.0691 58.706 25.9689C58.706 25.9288 58.6862 25.9088 58.6862 25.8687C58.6862 25.8487 58.6862 25.8286 58.6663 25.8086C58.6663 25.7685 58.6465 25.7284 58.6465 25.6883C58.6266 25.5881 58.6068 25.5079 58.5671 25.4077C58.5473 25.3476 58.5274 25.2674 58.5076 25.2073C58.5076 25.1873 58.5076 25.1672 58.4877 25.1672C58.4877 25.1472 58.4877 25.1472 58.4679 25.1271C58.4481 25.0269 58.4084 24.9467 58.3885 24.8465C58.3687 24.7664 58.329 24.6661 58.2893 24.586C58.2893 24.5659 58.2695 24.5459 58.2695 24.5459C58.2695 24.5258 58.2695 24.5258 58.2496 24.5058C58.2298 24.4457 58.2099 24.3855 58.1901 24.3455C58.1504 24.2653 58.1306 24.1651 58.0909 24.0849C58.071 24.0248 58.0313 23.9647 58.0115 23.9045C58.0115 23.8845 58.0115 23.8845 57.9917 23.8644C57.9917 23.8444 57.9718 23.8444 57.9718 23.8244C57.9321 23.7442 57.8924 23.664 57.8528 23.5638C57.8131 23.4636 57.7734 23.3834 57.7138 23.2832C57.7138 23.2632 57.694 23.2632 57.694 23.2431C57.694 23.2231 57.6742 23.203 57.6742 23.203C57.6345 23.1229 57.5948 23.0427 57.5551 22.9625C57.4956 22.8623 57.4559 22.7821 57.3964 22.6819C57.3765 22.6418 57.3567 22.6018 57.3368 22.5617C57.317 22.5416 57.317 22.5216 57.2971 22.5015C57.2575 22.4214 57.1979 22.3412 57.1582 22.261C57.0987 22.1608 57.0193 22.0406 56.9598 21.9403C56.94 21.9203 56.94 21.9003 56.9201 21.8802C56.8209 21.7199 56.7018 21.5595 56.6026 21.4192C56.5232 21.319 56.4439 21.2188 56.3645 21.1186C56.305 21.0384 56.2256 20.9583 56.1661 20.858C56.1065 20.7779 56.0272 20.6977 55.9676 20.6175C55.9081 20.5374 55.8287 20.4572 55.7692 20.3971C55.7494 20.377 55.7494 20.377 55.7295 20.357C55.7097 20.3369 55.7097 20.3369 55.6898 20.3169C55.6501 20.2568 55.5906 20.2167 55.5509 20.1565C55.4715 20.0764 55.412 20.0162 55.3326 19.9361C55.3128 19.916 55.293 19.896 55.2533 19.876C55.2334 19.8559 55.2136 19.8559 55.2136 19.8359C55.1739 19.7958 55.1342 19.7557 55.0945 19.7357C55.0152 19.6755 54.9358 19.5954 54.8564 19.5352C54.8167 19.4951 54.777 19.4751 54.7572 19.4551C54.7373 19.435 54.7373 19.435 54.7175 19.415C54.6977 19.3949 54.658 19.3749 54.6381 19.3548C54.5588 19.2947 54.4794 19.2346 54.4 19.1745C54.3405 19.1344 54.2809 19.0943 54.2214 19.0542C54.2214 19.0542 54.2214 19.0542 54.2016 19.0342C54.1817 19.0342 54.1817 19.0141 54.1619 19.0141C54.0825 18.974 54.023 18.9139 53.9436 18.8738C53.8642 18.8337 53.8047 18.7736 53.7253 18.7335C53.7055 18.7135 53.6856 18.7135 53.6658 18.6934C53.6063 18.6534 53.5467 18.6333 53.5071 18.5932C53.4277 18.5531 53.3682 18.5131 53.2888 18.473C53.2491 18.4529 53.1896 18.4329 53.1499 18.4128H53.13C53.1102 18.4128 53.0903 18.3928 53.0903 18.3928C53.011 18.3527 52.9514 18.3327 52.8919 18.3126C52.8125 18.2926 52.753 18.2525 52.6736 18.2325C52.6538 18.2325 52.6538 18.2325 52.6339 18.2124C52.6141 18.2124 52.6141 18.2124 52.5943 18.1924C52.5546 18.1723 52.495 18.1523 52.4554 18.1523C52.376 18.1322 52.3165 18.1122 52.2371 18.0922C52.1974 18.0922 52.1776 18.0721 52.1379 18.0721C52.118 18.0721 52.0982 18.0721 52.0982 18.0721C52.0783 18.0721 52.0585 18.0521 52.0386 18.0521C51.9593 18.032 51.8799 18.032 51.8204 18.012C51.7807 18.012 51.7212 18.012 51.6815 17.9919C51.6616 17.9919 51.6418 17.9919 51.6219 17.9919C51.6021 17.9919 51.6021 17.9919 51.5823 17.9919C51.5029 17.9919 51.4235 17.9919 51.3441 17.9919C51.3044 17.9919 51.2846 17.9919 51.2449 17.9919C51.2052 17.9919 51.1854 17.9919 51.1457 17.9919C51.1259 17.9919 51.0862 17.9919 51.0663 17.9919C50.9671 17.9919 50.8679 18.012 50.7687 18.032C50.729 18.032 50.6893 18.0521 50.6496 18.0721C50.5702 18.0922 50.4909 18.1122 50.4115 18.1322H50.3916C50.3718 18.1322 50.352 18.1523 50.3321 18.1523C50.2131 18.1924 50.1138 18.2525 49.9948 18.3126L47.6334 19.6956C47.7525 19.6354 47.8517 19.5753 47.9708 19.5352C47.9906 19.5352 47.9906 19.5152 48.0104 19.5152C48.1097 19.4751 48.2287 19.4551 48.3279 19.415C48.3478 19.415 48.3676 19.3949 48.4073 19.3949C48.5264 19.3749 48.6653 19.3548 48.8042 19.3348C48.824 19.3348 48.8637 19.3348 48.8836 19.3348C49.0225 19.3348 49.1415 19.3348 49.2804 19.3348C49.3003 19.3348 49.3003 19.3348 49.3201 19.3348C49.459 19.3548 49.5979 19.3749 49.7567 19.3949C49.7765 19.3949 49.7765 19.3949 49.7963 19.3949C49.9551 19.435 50.094 19.4751 50.2527 19.5352C50.2726 19.5352 50.2726 19.5352 50.2726 19.5352C50.4313 19.5954 50.5901 19.6555 50.7687 19.7357C50.7885 19.7357 50.7885 19.7557 50.8084 19.7557C50.9671 19.8359 51.1457 19.916 51.3243 20.0162C51.5029 20.1165 51.6815 20.2367 51.8402 20.357C51.8601 20.377 51.8601 20.377 51.8799 20.3971C52.0386 20.4973 52.1776 20.6175 52.3363 20.7378C52.3561 20.7578 52.376 20.7779 52.3958 20.7979C52.5347 20.9182 52.6935 21.0384 52.8324 21.1787C52.8522 21.1988 52.8721 21.2188 52.8919 21.2389C53.0507 21.3791 53.1896 21.5194 53.3285 21.6798L53.3483 21.6998C53.5071 21.8602 53.646 22.0205 53.7849 22.2009L53.8047 22.2209C53.9436 22.4013 54.0825 22.5617 54.2214 22.742C54.2413 22.7621 54.2413 22.7821 54.2611 22.7821C54.3802 22.9425 54.4794 23.1028 54.5984 23.2632C54.6778 23.3834 54.7373 23.4836 54.8167 23.6039C54.8762 23.7041 54.9358 23.7843 54.9755 23.8845C55.0152 23.9446 55.035 23.9847 55.0548 24.0448C55.1342 24.2052 55.2334 24.3655 55.3128 24.5258C55.3128 24.5459 55.3326 24.5659 55.3326 24.586C55.4319 24.7864 55.5311 24.9868 55.6105 25.1873C55.6105 25.2073 55.6303 25.2073 55.6303 25.2273C55.7097 25.4278 55.789 25.6282 55.8684 25.8286C55.8684 25.8487 55.8684 25.8487 55.8883 25.8687C55.9676 26.0691 56.0272 26.2896 56.1065 26.49C56.1065 26.5101 56.1065 26.5101 56.1264 26.5301C56.1859 26.7305 56.2454 26.931 56.2851 27.1314C56.2851 27.1514 56.2851 27.1715 56.305 27.1915C56.3447 27.3919 56.3843 27.6124 56.424 27.8128C56.4637 28.0133 56.4836 28.2337 56.5034 28.4342C56.5034 28.4542 56.5034 28.4742 56.5034 28.4943C56.5232 28.6947 56.5232 28.8951 56.5232 29.0956C56.5232 29.296 56.5034 29.4964 56.5034 29.6768C56.5034 29.6968 56.5034 29.6968 56.5034 29.7169C56.4836 29.8973 56.4637 30.0576 56.424 30.218C56.424 30.238 56.424 30.258 56.4042 30.2781C56.3645 30.4384 56.3447 30.5787 56.2851 30.719C56.2851 30.7391 56.2653 30.7591 56.2653 30.7992C56.2256 30.9395 56.1661 31.0597 56.1264 31.18C56.1264 31.18 56.1264 31.2 56.1065 31.2201C56.047 31.3604 55.9676 31.4806 55.8883 31.6009C55.8883 31.6209 55.8684 31.6209 55.8486 31.641C55.789 31.7412 55.7097 31.8214 55.6501 31.9216C55.6303 31.9416 55.5906 31.9817 55.5708 32.0018C55.5112 32.0619 55.4319 32.142 55.3723 32.2022C55.3525 32.2222 55.3128 32.2423 55.293 32.2823C55.1937 32.3625 55.0945 32.4226 54.9953 32.5028L57.3567 31.1199C57.4559 31.0597 57.5551 30.9796 57.6543 30.8994C57.6742 30.8794 57.7138 30.8593 57.7337 30.8192C57.8131 30.7591 57.8726 30.699 57.9321 30.6188C57.952 30.5988 57.9917 30.5587 58.0115 30.5386C58.0909 30.4585 58.1504 30.3583 58.2099 30.258C58.2298 30.238 58.2298 30.238 58.2496 30.218C58.329 30.0977 58.3885 29.9774 58.4481 29.8572V29.8371C58.4481 29.8171 58.4481 29.8171 58.4679 29.7971C58.5076 29.7169 58.5473 29.6367 58.5671 29.5565C58.587 29.5165 58.587 29.4764 58.6068 29.4363C58.6068 29.4162 58.6266 29.3762 58.6266 29.3561C58.6266 29.3361 58.6465 29.316 58.6465 29.296C58.6663 29.2158 58.6862 29.1156 58.706 29.0354C58.706 28.9954 58.7259 28.9753 58.7259 28.9352C58.7259 28.9152 58.7259 28.8951 58.7457 28.8751C58.7457 28.835 58.7655 28.815 58.7655 28.7749C58.7854 28.6947 58.7854 28.6145 58.8052 28.5143C58.8052 28.4742 58.8251 28.4141 58.8251 28.374C58.8251 28.354 58.8251 28.3339 58.8251 28.3339C58.8251 28.3139 58.8251 28.2939 58.8251 28.2738C58.8251 28.1936 58.8449 28.1135 58.8449 28.0333C58.8449 27.9531 58.8449 27.873 58.8449 27.7728V27.7527C58.8846 27.7126 58.8846 27.6325 58.8846 27.5523Z" fill="url(#paint13_linear)"/>
<path d="M51.5 19.995C54.3773 21.6786 56.699 25.7472 56.699 29.0944C56.699 32.4415 54.3574 33.7843 51.4802 32.1007C48.6029 30.4172 46.2812 26.3686 46.2812 23.0214C46.2812 19.6743 48.6227 18.3315 51.5 19.995Z" fill="#37373D"/>
<path d="M52.4553 49.5189L56.9399 46.8733L56.9994 25.1871L52.5149 27.8328L52.4553 49.5189Z" fill="#E5201B"/>
<path d="M52.5149 27.8328L56.9995 25.1872L42.7519 16.8895L42.0773 17.2904V17.6511L39.2992 19.3147L38.9619 19.1143L38.2673 19.5151L52.5149 27.8328Z" fill="#E5201B"/>
<path d="M38.2674 19.5151L38.2079 41.2013L52.4554 49.519L52.5149 27.8328L38.2674 19.5151Z" fill="#B6110D"/>
<path d="M39.2993 19.3147L52.515 26.971L55.6304 25.1872L42.0774 17.6511L39.2993 19.3147Z" fill="#E7E8E9"/>
<path d="M42.0774 17.2904V17.6512L55.2534 25.4077L55.6304 25.1872L42.0774 17.2904Z" fill="#B6110D"/>
<path d="M46.9388 52.1646L51.4234 49.5391L51.483 27.8529L46.9984 30.4785L46.9388 52.1646Z" fill="#F7CC00"/>
<path d="M46.9984 30.4784L51.483 27.8529L37.2355 19.5352L36.5608 19.936V20.2968L33.7827 21.9603L33.4454 21.7599L32.7509 22.1808L46.9984 30.4784Z" fill="#F7CC00"/>
<path d="M32.7509 22.1808L32.6914 43.8669L46.9389 52.1646L46.9985 30.4784L32.7509 22.1808Z" fill="#E1A200"/>
<path d="M33.7828 21.9603L46.9985 29.6366L50.1139 27.8528L36.5609 20.2968L33.7828 21.9603Z" fill="#E7E8E9"/>
<path d="M36.5609 19.936V20.2968L49.7369 28.0733L50.1139 27.8529L36.5609 19.936Z" fill="#E1A200"/>
<path d="M41.1644 54.9105L45.6689 52.2649L45.7284 30.5988L41.2438 33.2243L41.1644 54.9105Z" fill="#7EBDE9"/>
<path d="M41.2439 33.2243L45.7285 30.5987L31.4809 22.281L30.8063 22.6819V23.0426L28.0282 24.7062L27.6909 24.5057L26.9963 24.9066L41.2439 33.2243Z" fill="#7EBDE9"/>
<path d="M26.9964 24.9066L26.917 46.5928L41.1645 54.9105L41.2439 33.2243L26.9964 24.9066Z" fill="#6A98B8"/>
<path d="M28.0282 24.7061L41.2439 32.3624L44.3593 30.5987L30.8063 23.0426L28.0282 24.7061Z" fill="#E7E8E9"/>
<path d="M30.8063 22.6819V23.0427L43.9624 30.7992L44.3593 30.5987L30.8063 22.6819Z" fill="#6A98B8"/>
<path d="M38.6245 38.8362C38.6245 38.7561 38.6245 38.6759 38.6047 38.5757C38.6047 38.5356 38.6047 38.4955 38.6047 38.4554C38.6047 38.4354 38.6047 38.4153 38.6047 38.3953C38.6047 38.3552 38.6047 38.3352 38.6047 38.3151C38.6047 38.2349 38.5848 38.1347 38.5848 38.0546C38.5848 37.9744 38.565 37.8742 38.5452 37.794C38.5253 37.7138 38.5253 37.6136 38.5055 37.5334C38.4856 37.4332 38.4658 37.3531 38.4459 37.2529C38.4459 37.2128 38.4261 37.1927 38.4261 37.1526C38.4261 37.1326 38.4261 37.1126 38.4063 37.0925C38.4063 37.0524 38.3864 37.0123 38.3864 36.9723C38.3666 36.872 38.3467 36.7919 38.307 36.6917C38.2872 36.6315 38.2674 36.5514 38.2475 36.4912C38.2475 36.4712 38.2475 36.4511 38.2277 36.4511C38.2277 36.4311 38.2277 36.4311 38.2078 36.4111C38.188 36.3108 38.1483 36.2307 38.1284 36.1305C38.1086 36.0503 38.0689 35.9501 38.0292 35.8699C38.0292 35.8499 38.0094 35.8298 38.0094 35.8298C38.0094 35.8098 38.0094 35.8098 37.9895 35.7897C37.9697 35.7296 37.9499 35.6695 37.93 35.6294C37.8903 35.5492 37.8705 35.449 37.8308 35.3688C37.811 35.3087 37.7713 35.2486 37.7514 35.1885C37.7514 35.1684 37.7514 35.1684 37.7316 35.1484C37.7316 35.1283 37.7117 35.1283 37.7117 35.1083C37.6721 35.0281 37.6324 34.9279 37.5927 34.8477C37.553 34.7475 37.5133 34.6674 37.4538 34.5671C37.4538 34.5471 37.4339 34.5471 37.4339 34.5271C37.4339 34.507 37.4141 34.487 37.4141 34.487C37.3744 34.4068 37.3347 34.3266 37.295 34.2465C37.2355 34.1462 37.1958 34.0661 37.1363 33.9659C37.1164 33.9258 37.0966 33.8857 37.0768 33.8456C37.0569 33.8256 37.0569 33.8055 37.0371 33.7855C36.9974 33.7053 36.9378 33.6251 36.8982 33.545C36.8386 33.4447 36.7593 33.3245 36.6997 33.2243C36.6799 33.2042 36.6799 33.1842 36.66 33.1642C36.5608 33.0038 36.4418 32.8435 36.3426 32.7032C36.2632 32.603 36.1838 32.5027 36.1044 32.4025C36.0449 32.3224 35.9655 32.2422 35.906 32.142C35.8465 32.0618 35.7671 31.9816 35.7076 31.9015C35.648 31.8213 35.5687 31.7411 35.5091 31.681C35.5091 31.661 35.4893 31.661 35.4694 31.6409C35.4496 31.6209 35.4496 31.6209 35.4298 31.6008C35.3901 31.5407 35.3305 31.5006 35.2909 31.4405C35.2115 31.3603 35.1519 31.3002 35.0726 31.22C35.0527 31.2 35.0329 31.1799 34.9932 31.1599C34.9734 31.1398 34.9535 31.1398 34.9535 31.1198C34.9138 31.0797 34.8741 31.0396 34.8345 31.0196C34.7551 30.9595 34.6757 30.8793 34.5963 30.8192C34.5566 30.7791 34.517 30.759 34.4971 30.739C34.4773 30.719 34.4773 30.719 34.4574 30.6989C34.4376 30.6789 34.3979 30.6588 34.3781 30.6388C34.2987 30.5787 34.2193 30.5185 34.1399 30.4584C34.0804 30.4183 34.0209 30.3782 33.9613 30.3381H33.9415C33.9217 30.3381 33.9217 30.3181 33.9018 30.3181C33.8224 30.278 33.7629 30.2179 33.6835 30.1778C33.6042 30.1377 33.5446 30.0776 33.4653 30.0375C33.4454 30.0175 33.4256 30.0175 33.4057 29.9974C33.3462 29.9573 33.2867 29.9373 33.247 29.8972C33.1676 29.8571 33.1081 29.817 33.0287 29.7769C32.9692 29.7569 32.9295 29.7369 32.8898 29.6968H32.87C32.8501 29.6968 32.8303 29.6767 32.8303 29.6767C32.7509 29.6366 32.6914 29.6166 32.6318 29.5966C32.5525 29.5765 32.4929 29.5364 32.4136 29.5164C32.3937 29.5164 32.3937 29.5164 32.3739 29.4963C32.354 29.4963 32.354 29.4963 32.3342 29.4763C32.2945 29.4563 32.235 29.4362 32.1953 29.4362C32.1159 29.4162 32.0564 29.3961 31.977 29.3761C31.9373 29.3761 31.9175 29.356 31.8778 29.356C31.858 29.356 31.8381 29.356 31.8381 29.356C31.8183 29.356 31.7984 29.336 31.7786 29.336C31.6992 29.316 31.6198 29.316 31.5405 29.2959C31.5008 29.2959 31.4611 29.2959 31.4016 29.2759C31.3817 29.2759 31.3619 29.2759 31.342 29.2759C31.3222 29.2759 31.3222 29.2759 31.3023 29.2759C31.223 29.2759 31.1436 29.2759 31.0642 29.2759C31.0245 29.2759 31.0047 29.2759 30.965 29.2759C30.9253 29.2759 30.9055 29.2759 30.8658 29.2759C30.8459 29.2759 30.8063 29.2759 30.7864 29.2759C30.6872 29.2959 30.588 29.2959 30.4888 29.316C30.4491 29.316 30.4094 29.336 30.3697 29.356C30.2903 29.3761 30.211 29.3961 30.1316 29.4162H30.1117C30.0919 29.4162 30.0721 29.4362 30.0522 29.4362C29.9332 29.4763 29.8339 29.5364 29.7149 29.5966L27.3535 30.9795C27.4726 30.9194 27.5718 30.8592 27.6909 30.8192C27.7107 30.8192 27.7107 30.7991 27.7305 30.7991C27.8298 30.759 27.9488 30.739 28.048 30.6989C28.0679 30.6989 28.0877 30.6789 28.1274 30.6789C28.2465 30.6588 28.3854 30.6388 28.5243 30.6388C28.5441 30.6388 28.5838 30.6388 28.6036 30.6388C28.7425 30.6388 28.8616 30.6388 29.0005 30.6388C29.0204 30.6388 29.0204 30.6388 29.0402 30.6388C29.1791 30.6588 29.318 30.6789 29.4768 30.6989C29.4966 30.6989 29.4966 30.6989 29.5164 30.6989C29.6752 30.739 29.8141 30.7791 29.9728 30.8192C29.9927 30.8192 29.9927 30.8192 30.0125 30.8192C30.1713 30.8793 30.33 30.9394 30.5086 31.0196C30.5285 31.0196 30.5285 31.0396 30.5483 31.0396C30.707 31.1198 30.8856 31.2 31.0642 31.3002C31.2428 31.4004 31.4016 31.5207 31.5801 31.6409C31.6 31.661 31.6 31.661 31.6198 31.681C31.7786 31.7812 31.9175 31.9015 32.0762 32.0217C32.0961 32.0418 32.1159 32.0618 32.1358 32.0818C32.2747 32.2021 32.4334 32.3224 32.5723 32.4627C32.5922 32.4827 32.612 32.5027 32.6318 32.5228C32.7707 32.6631 32.9295 32.8034 33.0684 32.9637L33.0882 32.9838C33.247 33.1441 33.3859 33.3045 33.5248 33.4848L33.5446 33.5049C33.6835 33.6853 33.8224 33.8456 33.9613 34.026C33.9812 34.046 33.9812 34.0661 34.001 34.0661C34.1201 34.2264 34.2193 34.3868 34.3384 34.5471C34.4177 34.6674 34.4773 34.7676 34.5566 34.8878C34.6162 34.988 34.6757 35.0682 34.7154 35.1684C34.7352 35.2285 34.7749 35.2686 34.7948 35.3288C34.8741 35.4891 34.9734 35.6494 35.0527 35.8098C35.0527 35.8298 35.0726 35.8499 35.0726 35.8699C35.1718 36.0703 35.271 36.2708 35.3504 36.4712C35.3504 36.4912 35.3504 36.4912 35.3702 36.5113C35.4496 36.7117 35.529 36.9121 35.6083 37.1326C35.6083 37.1526 35.6083 37.1526 35.6282 37.1727C35.7076 37.3731 35.7671 37.5936 35.8465 37.794C35.8465 37.814 35.8465 37.814 35.8663 37.8341C35.9258 38.0345 35.9854 38.2349 36.0251 38.4354C36.0251 38.4554 36.0251 38.4755 36.0449 38.4955C36.0846 38.6959 36.1243 38.9164 36.164 39.1168C36.2036 39.3172 36.2235 39.5377 36.2433 39.7381C36.2433 39.7582 36.2433 39.7782 36.2433 39.7983C36.2632 39.9987 36.2632 40.1991 36.2632 40.3995C36.2632 40.6 36.2433 40.8004 36.2433 40.9808C36.2433 41.0008 36.2433 41.0008 36.2433 41.0209C36.2235 41.2013 36.2036 41.3616 36.164 41.5219C36.164 41.542 36.164 41.562 36.1441 41.5821C36.1044 41.7424 36.0846 41.8827 36.0251 42.023C36.0251 42.043 36.0052 42.0631 36.0052 42.1032C35.9655 42.2435 35.906 42.3637 35.8663 42.484C35.8663 42.504 35.8663 42.504 35.8465 42.5241C35.7869 42.6644 35.7076 42.7846 35.6282 42.9049C35.6282 42.9249 35.6083 42.9249 35.5885 42.945C35.529 43.0452 35.4496 43.1253 35.3901 43.2256C35.3702 43.2456 35.3305 43.2857 35.3107 43.3057C35.2512 43.3659 35.1718 43.446 35.1123 43.5062C35.0924 43.5262 35.0527 43.5462 35.0329 43.5863C34.9337 43.6665 34.8345 43.7266 34.7352 43.8068L37.0966 42.4239C37.1958 42.3637 37.295 42.2836 37.3942 42.2034C37.4141 42.1833 37.4538 42.1633 37.4736 42.1433C37.553 42.0831 37.6125 42.023 37.6721 41.9428C37.6919 41.9228 37.7316 41.8827 37.7514 41.8627C37.8308 41.7825 37.8903 41.6823 37.9499 41.5821C37.9499 41.562 37.9697 41.562 37.9895 41.542C38.0689 41.4217 38.1284 41.3015 38.188 41.1812C38.188 41.1812 38.188 41.1812 38.188 41.1612C38.188 41.1411 38.2078 41.1411 38.2078 41.1211C38.2475 41.0409 38.2872 40.9607 38.307 40.8806C38.3269 40.8405 38.3269 40.8004 38.3467 40.7403C38.3467 40.7202 38.3666 40.7002 38.3666 40.6601C38.3666 40.6401 38.3864 40.62 38.3864 40.6C38.4063 40.5198 38.4261 40.4196 38.4658 40.3394C38.4658 40.2993 38.4856 40.2793 38.4856 40.2392C38.4856 40.2192 38.4856 40.1991 38.5055 40.1791C38.5055 40.139 38.5253 40.119 38.5253 40.0789C38.5452 39.9987 38.5452 39.9185 38.565 39.8384C38.565 39.7983 38.5848 39.7381 38.5848 39.6981C38.5848 39.678 38.5848 39.658 38.5848 39.6379C38.5848 39.6179 38.5848 39.5978 38.5848 39.5778C38.5848 39.4976 38.6047 39.4175 38.6047 39.3373C38.6047 39.2571 38.6047 39.1769 38.6047 39.0767V39.0567C38.6444 38.9966 38.6245 38.9164 38.6245 38.8362Z" fill="url(#paint14_linear)"/>
<path d="M31.5 31.4948C34.3773 33.1784 36.283 37.1326 36.283 40.4596C36.283 43.8068 33.9415 45.1496 31.0642 43.466C28.1869 41.7824 25.8652 37.7338 25.8652 34.3867C25.8851 31.0396 28.6227 29.8112 31.5 31.4948Z" fill="#37373D"/>
<path d="M46.046 13.7428C46.1055 13.7228 46.1849 13.6827 46.2444 13.6627C46.423 13.6025 46.5818 13.5224 46.7603 13.4622C46.8 13.4422 46.8199 13.4422 46.8596 13.4222C47.058 13.342 47.2763 13.2819 47.4747 13.2418C47.5938 13.2017 47.7327 13.1816 47.8517 13.1416C47.8914 13.1215 47.9311 13.1215 47.9906 13.1015C48.1692 13.0614 48.328 13.0413 48.4867 13.0013C48.5066 13.0013 48.5264 13.0013 48.5462 13.0013C48.6851 12.9812 48.8241 12.9612 48.963 12.9612C49.0026 12.9612 49.0622 12.9612 49.1019 12.9411C49.2011 12.9411 49.3003 12.9211 49.3797 12.9211C49.5979 12.9211 49.8162 12.9211 50.0345 12.9211C50.0543 12.9211 50.0742 12.9211 50.094 12.9211C50.2726 12.9411 50.471 12.9612 50.6496 12.9812C50.6893 12.9812 50.7489 13.0013 50.7885 13.0013C50.987 13.0413 51.1656 13.0814 51.364 13.1416C51.5426 13.2017 51.7212 13.2618 51.8998 13.342C51.9395 13.362 51.9791 13.3821 52.0188 13.4021C52.1776 13.4622 52.3165 13.5424 52.4554 13.6226C52.4951 13.6426 52.5348 13.6627 52.5744 13.6827L49.0622 11.6183L47.5342 10.7164C47.4945 10.6964 47.4747 10.6763 47.435 10.6763C47.316 10.6162 47.1771 10.536 47.058 10.4959C47.0381 10.4759 46.9985 10.4759 46.9786 10.4558C46.9588 10.4558 46.9389 10.4358 46.9191 10.4358C46.7603 10.3757 46.5818 10.3155 46.4032 10.2554H46.3833C46.2047 10.1953 46.0063 10.1552 45.8277 10.1352C45.8079 10.1352 45.788 10.1151 45.7682 10.1151C45.7285 10.1151 45.7086 10.1151 45.669 10.0951C45.5102 10.075 45.3515 10.055 45.1729 10.035C45.1332 10.035 45.1133 10.035 45.0737 10.0149C45.0538 10.0149 45.0538 10.0149 45.034 10.0149C44.8157 9.99487 44.6173 9.99487 44.399 10.0149C44.3791 10.0149 44.3593 10.0149 44.3395 10.0149C44.2799 10.0149 44.2006 10.035 44.141 10.035C44.0815 10.035 44.0418 10.035 43.9823 10.055C43.8434 10.075 43.7045 10.075 43.5656 10.0951C43.5457 10.0951 43.5259 10.0951 43.506 10.0951C43.3473 10.1151 43.1687 10.1552 43.01 10.1953C42.9504 10.2153 42.8711 10.2354 42.8115 10.2354C42.7123 10.2554 42.6131 10.2755 42.5139 10.3155H42.494C42.2956 10.3757 42.0972 10.4358 41.8789 10.516C41.8392 10.536 41.8194 10.536 41.7797 10.5561C41.6011 10.6162 41.4225 10.6964 41.2439 10.7565C41.2241 10.7565 41.2042 10.7765 41.1844 10.7765C41.1447 10.7966 41.1248 10.8166 41.0851 10.8166C40.9066 10.8968 40.7081 10.977 40.5097 11.0772C40.4502 11.0972 40.3906 11.1373 40.3311 11.1573C40.093 11.2776 39.8549 11.3979 39.6167 11.5382C39.3191 11.7185 39.0214 11.8989 38.7238 12.0993C38.6841 12.1394 38.6246 12.1595 38.5849 12.1795C38.3071 12.3799 38.0293 12.5804 37.7515 12.8008C37.7118 12.8409 37.6523 12.881 37.6126 12.9211C37.3348 13.1416 37.057 13.3821 36.7791 13.6226C36.7593 13.6426 36.7395 13.6426 36.7395 13.6627C36.4617 13.9032 36.2037 14.1437 35.9457 14.4042C35.9259 14.4243 35.906 14.4443 35.8862 14.4644C35.8664 14.4844 35.8664 14.4844 35.8465 14.5045C35.4496 14.8853 35.0726 15.3062 34.7154 15.7271C34.6956 15.7471 34.6758 15.7671 34.6559 15.7872C34.6361 15.8072 34.6162 15.8473 34.5964 15.8674C34.3186 16.188 34.0408 16.5288 33.7828 16.8695L33.763 16.8895C33.7431 16.9096 33.7233 16.9497 33.7034 16.9697C33.4852 17.2503 33.2669 17.5509 33.0684 17.8516C33.0486 17.8716 33.0288 17.8917 33.0288 17.9117L33.0089 17.9318C32.8105 18.2124 32.6319 18.513 32.4335 18.7936C32.4136 18.8136 32.3938 18.8537 32.3739 18.8738C32.3541 18.9138 32.3144 18.9539 32.2946 19.0141C32.1358 19.2546 31.9969 19.4951 31.858 19.7356C31.8382 19.7757 31.8183 19.7957 31.7985 19.8358C31.7985 19.8558 31.7786 19.8558 31.7786 19.8759C31.6199 20.1565 31.4611 20.4371 31.3024 20.7177C31.2825 20.7377 31.2825 20.7578 31.2627 20.7778C31.2429 20.8179 31.223 20.858 31.2032 20.9181C31.0841 21.1586 30.965 21.3791 30.846 21.6196C30.8261 21.6597 30.8063 21.6998 30.7865 21.7399C30.7468 21.8 30.7468 21.82 30.7269 21.8401C30.588 22.1407 30.4491 22.4413 30.3301 22.7219V22.742C30.3102 22.762 30.3102 22.7821 30.3102 22.8021C30.1912 23.0627 30.0919 23.3433 29.9729 23.6038C29.953 23.6439 29.9332 23.704 29.9134 23.7441C29.8935 23.7842 29.8935 23.8243 29.8737 23.8644C29.7546 24.1851 29.6355 24.4857 29.5363 24.8064V24.8264C29.5363 24.8465 29.5165 24.8665 29.5165 24.8665C29.4173 25.1872 29.3181 25.5279 29.2188 25.8486C29.199 25.8887 29.199 25.9288 29.1791 25.9689C29.1791 25.9889 29.1791 26.0089 29.1593 26.029C29.0601 26.4098 28.9609 26.7906 28.8815 27.1714C28.8815 27.2115 28.8617 27.2315 28.8617 27.2716C28.8418 27.3117 28.8418 27.3518 28.8418 27.4119C28.8021 27.5723 28.7823 27.7126 28.7624 27.8729C28.7426 27.9731 28.7228 28.0733 28.7029 28.1535C28.6831 28.3138 28.6434 28.4742 28.6235 28.6345C28.6235 28.6947 28.6037 28.7748 28.6037 28.835C28.6037 28.855 28.6037 28.875 28.6037 28.875C28.564 29.1957 28.5243 29.5364 28.5045 29.8571C28.5045 29.9173 28.5045 29.9774 28.4846 30.0576C28.4648 30.3983 28.4449 30.719 28.4449 31.0396V34.5671L33.4256 37.4934V33.9659C33.4256 33.6452 33.4455 33.3245 33.4653 32.9838C33.4653 32.9036 33.4653 32.8435 33.4852 32.7633C33.505 32.4426 33.5447 32.1219 33.5844 31.8013C33.6042 31.7011 33.6042 31.6008 33.6241 31.5207C33.6439 31.3804 33.6637 31.22 33.6836 31.0797C33.7034 30.9795 33.7233 30.8793 33.7431 30.7791C33.763 30.6388 33.8026 30.4784 33.8225 30.3382C33.8423 30.258 33.8622 30.1778 33.882 30.0976C33.9614 29.7168 34.0606 29.336 34.1598 28.9552C34.1797 28.8951 34.1995 28.835 34.2194 28.7748C34.3186 28.4541 34.3979 28.1335 34.517 27.8128C34.5368 27.7727 34.5368 27.7526 34.5567 27.7126C34.6559 27.3919 34.775 27.0712 34.894 26.7706C34.9139 26.6904 34.9536 26.6303 34.9734 26.5501C35.0726 26.2895 35.1718 26.029 35.2909 25.7684C35.3107 25.7283 35.3306 25.6682 35.3504 25.6281C35.4695 25.3475 35.6084 25.0469 35.7473 24.7663C35.787 24.6861 35.8267 24.626 35.8465 24.5458C35.9656 24.3053 36.0846 24.0648 36.2037 23.8243C36.2235 23.7642 36.2632 23.704 36.2831 23.6639C36.4418 23.3834 36.6006 23.0827 36.7593 22.8021C36.7791 22.762 36.8188 22.7019 36.8387 22.6618C36.9776 22.4213 37.1363 22.1808 37.2752 21.9202C37.3149 21.8401 37.3546 21.7799 37.4141 21.6998C37.5927 21.4192 37.7912 21.1185 37.9697 20.8379C37.9896 20.7979 38.0293 20.7578 38.069 20.7177C38.2674 20.417 38.4857 20.1364 38.6841 19.8558C38.7039 19.8158 38.7436 19.7757 38.7635 19.7556C39.0413 19.3949 39.3191 19.0541 39.5969 18.7335C39.6366 18.6934 39.6564 18.6533 39.6961 18.6332C40.0731 18.2124 40.4502 17.7915 40.8272 17.4106C40.8669 17.3706 40.9066 17.3305 40.9462 17.2904C41.2042 17.0499 41.4622 16.7893 41.7201 16.5689C41.74 16.5488 41.7598 16.5288 41.7797 16.5087C42.0575 16.2682 42.3154 16.0477 42.5932 15.8273C42.6528 15.7872 42.6925 15.7471 42.752 15.707C43.0298 15.4866 43.2878 15.2861 43.5656 15.1057C43.6251 15.0657 43.6648 15.0456 43.7243 15.0055C44.022 14.8051 44.2998 14.6247 44.5974 14.4443C44.8355 14.304 45.0737 14.1838 45.3118 14.0635C45.3713 14.0234 45.4308 14.0034 45.5102 13.9633C45.6888 13.9032 45.8674 13.823 46.046 13.7428Z" fill="url(#paint15_linear)"/>
<path d="M44.6172 14.4644C38.4459 18.072 32.9801 26.8396 32.9999 33.9949L33 37.4949L34.1201 37.1326L34.1002 36.4111V33.6251C34.0804 26.8507 38.8031 18.5931 44.6371 15.1859C46.8 13.9232 48.824 13.5023 50.5107 13.843V12.9812C48.7645 12.7407 46.7603 13.2217 44.6172 14.4644Z" fill="url(#paint16_linear)"/>
<path d="M34.894 39.6981C34.894 39.6379 34.894 39.5578 34.894 39.4976C34.894 39.4576 34.894 39.4375 34.894 39.3974C34.894 39.3774 34.894 39.3774 34.894 39.3573C34.894 39.3373 34.894 39.3173 34.894 39.2972C34.894 39.2371 34.8742 39.1569 34.8742 39.0968C34.8742 39.0367 34.8543 38.9565 34.8543 38.8763C34.8345 38.8162 34.8345 38.736 34.8147 38.6759C34.7948 38.5957 34.7948 38.5356 34.775 38.4554C34.775 38.4354 34.7551 38.3953 34.7551 38.3753C34.7551 38.3552 34.7551 38.3552 34.7551 38.3352C34.7551 38.2951 34.7353 38.275 34.7353 38.235C34.7154 38.1548 34.6956 38.0947 34.6758 38.0145C34.6559 37.9544 34.6361 37.9143 34.6361 37.8541C34.6361 37.8341 34.6361 37.8341 34.6162 37.8141V37.794C34.5964 37.7138 34.5765 37.6537 34.5567 37.5736C34.5369 37.4934 34.517 37.4333 34.4773 37.3531C34.4773 37.333 34.4773 37.333 34.4575 37.313C34.4575 37.313 34.4575 37.293 34.4376 37.2729C34.4178 37.2328 34.398 37.1727 34.3781 37.1326C34.3583 37.0725 34.3186 36.9923 34.2987 36.9322C34.2789 36.8921 34.259 36.832 34.2392 36.7919C34.2392 36.7919 34.2392 36.7718 34.2194 36.7718C34.2194 36.7518 34.2194 36.7518 34.1995 36.7318C34.1797 36.6716 34.14 36.5915 34.1003 36.5313C34.0606 36.4512 34.0408 36.391 34.0011 36.3109C34.0011 36.3109 33.9812 36.2908 33.9812 36.2708C33.9812 36.2507 33.9614 36.2507 33.9614 36.2307C33.9217 36.1706 33.9019 36.1104 33.8622 36.0503C33.8225 35.9701 33.7828 35.91 33.7431 35.8298C33.7233 35.7898 33.7034 35.7697 33.6836 35.7296C33.6637 35.7096 33.6637 35.6895 33.6637 35.6695C33.6241 35.6094 33.5844 35.5492 33.5447 35.4891C33.4852 35.4089 33.4455 35.3087 33.3859 35.2286C33.3859 35.2085 33.3661 35.2085 33.3661 35.1885C33.2867 35.0682 33.2073 34.948 33.1081 34.8277C33.0486 34.7475 32.9891 34.6674 32.9295 34.5872C32.87 34.5271 32.8303 34.4469 32.7708 34.3868C32.7113 34.3266 32.6716 34.2665 32.6121 34.2064C32.5525 34.1463 32.5128 34.0861 32.4533 34.026L32.4335 34.006C32.4335 33.9859 32.4136 33.9859 32.3938 33.9659C32.3541 33.9258 32.3144 33.8857 32.2747 33.8456C32.2152 33.7855 32.1557 33.7254 32.0961 33.6652C32.0763 33.6452 32.0564 33.6251 32.0366 33.6051C32.0167 33.5851 32.0167 33.5851 31.9969 33.565C31.9572 33.545 31.9374 33.5049 31.9175 33.4848C31.858 33.4247 31.7985 33.3846 31.7389 33.3245C31.7191 33.3045 31.6794 33.2844 31.6596 33.2443C31.6596 33.2443 31.6397 33.2243 31.6199 33.2243C31.6 33.2043 31.5802 33.1842 31.5604 33.1642C31.5008 33.1241 31.4413 33.064 31.3818 33.0239C31.3421 32.9838 31.2825 32.9637 31.2429 32.9237C31.2429 32.9237 31.2429 32.9237 31.223 32.9237C31.2032 32.9237 31.2032 32.9036 31.2032 32.9036C31.1436 32.8635 31.0841 32.8234 31.0246 32.7834C30.9651 32.7433 30.9055 32.7032 30.846 32.6831C30.8261 32.6831 30.8261 32.6631 30.8063 32.6631C30.7666 32.6431 30.7269 32.603 30.6674 32.5829C30.6079 32.5428 30.5483 32.5228 30.4888 32.5028C30.4491 32.4827 30.4094 32.4627 30.3698 32.4426C30.3698 32.4426 30.3698 32.4426 30.3499 32.4426C30.3301 32.4426 30.3301 32.4226 30.3102 32.4226C30.2507 32.4025 30.1912 32.3825 30.1515 32.3424C30.0919 32.3224 30.0324 32.3023 29.9927 32.2823H29.9729H29.953C29.9134 32.2622 29.8737 32.2622 29.834 32.2422C29.7745 32.2222 29.7149 32.2021 29.6554 32.2021C29.6355 32.2021 29.5959 32.1821 29.576 32.1821C29.5562 32.1821 29.5562 32.1821 29.5363 32.1821C29.5165 32.1821 29.4966 32.1821 29.4768 32.162C29.4173 32.142 29.3577 32.142 29.2982 32.142C29.2585 32.142 29.2188 32.142 29.199 32.1219C29.1792 32.1219 29.1792 32.1219 29.1593 32.1219C29.1395 32.1219 29.1395 32.1219 29.1196 32.1219C29.0601 32.1219 28.9807 32.1219 28.9212 32.1219C28.9013 32.1219 28.8617 32.1219 28.8418 32.1219C28.822 32.1219 28.7823 32.1219 28.7624 32.1219C28.7426 32.1219 28.7228 32.1219 28.7029 32.1219C28.6235 32.1219 28.5442 32.142 28.4648 32.162C28.4251 32.162 28.4053 32.1821 28.3656 32.1821C28.306 32.2021 28.2465 32.2021 28.187 32.2422H28.1671C28.1473 32.2422 28.1275 32.2622 28.1076 32.2622C28.0084 32.3023 27.929 32.3424 27.8496 32.3825L25.9844 33.4848C26.0637 33.4247 26.163 33.3846 26.2622 33.3446C26.282 33.3446 26.282 33.3446 26.3019 33.3245C26.3812 33.2844 26.4606 33.2644 26.5598 33.2443C26.5797 33.2443 26.5995 33.2243 26.6194 33.2243C26.7186 33.2043 26.8178 33.1842 26.9369 33.1842C26.9567 33.1842 26.9765 33.1842 26.9964 33.1842C27.0956 33.1842 27.2147 33.1842 27.3139 33.1842C27.3337 33.1842 27.3337 33.1842 27.3536 33.1842C27.4726 33.2043 27.5917 33.2043 27.6909 33.2443C27.7107 33.2443 27.7107 33.2443 27.7306 33.2443C27.8496 33.2644 27.9687 33.3045 28.0878 33.3446H28.1076C28.2267 33.3846 28.3656 33.4448 28.5045 33.5049C28.5243 33.5049 28.5243 33.5249 28.5442 33.5249C28.6831 33.5851 28.8021 33.6652 28.941 33.7454C29.0799 33.8256 29.2188 33.9057 29.3577 34.006C29.3776 34.006 29.3776 34.026 29.3974 34.026C29.5165 34.1062 29.6355 34.2064 29.7546 34.3066C29.7745 34.3266 29.7943 34.3467 29.8141 34.3467C29.9332 34.4469 30.0523 34.5471 30.1515 34.6473C30.1713 34.6674 30.1912 34.6674 30.1912 34.6874C30.3102 34.8077 30.4293 34.9079 30.5285 35.0281L30.5483 35.0482C30.6674 35.1684 30.7865 35.3087 30.9055 35.449L30.9254 35.4691C31.0444 35.6094 31.1436 35.7497 31.2429 35.89C31.2429 35.91 31.2627 35.91 31.2627 35.9301C31.3619 36.0503 31.4413 36.1906 31.5207 36.3109C31.5802 36.391 31.6397 36.4912 31.6993 36.5915C31.7389 36.6716 31.7985 36.7318 31.8382 36.8119C31.858 36.852 31.8778 36.8921 31.8977 36.9322C31.9572 37.0524 32.0366 37.1927 32.0961 37.313C32.0961 37.333 32.116 37.3531 32.116 37.3531C32.1953 37.5134 32.2747 37.6738 32.3342 37.8341C32.3342 37.8341 32.3342 37.8541 32.3541 37.8541C32.4335 38.0145 32.493 38.1748 32.5525 38.3352V38.3552C32.612 38.5156 32.6716 38.6959 32.7113 38.8563C32.7113 38.8763 32.7113 38.8763 32.7113 38.8964C32.751 39.0567 32.8105 39.2171 32.8303 39.3774C32.8303 39.3974 32.8303 39.3974 32.8303 39.4175C32.87 39.5778 32.9097 39.7582 32.9295 39.9185C32.9494 40.0789 32.9692 40.2392 32.9891 40.4196C32.9891 40.4397 32.9891 40.4397 32.9891 40.4597C33.0089 40.62 33.0089 40.7804 33.0089 40.9407C33.0089 41.1011 33.0089 41.2614 32.9891 41.4017C32.9891 41.4217 32.9891 41.4217 32.9891 41.4418C32.9692 41.5821 32.9494 41.7023 32.9295 41.8426C32.9295 41.8627 32.9295 41.8827 32.9295 41.8827C32.9097 42.003 32.87 42.1232 32.8303 42.2234C32.8303 42.2435 32.8105 42.2635 32.8105 42.2836C32.7708 42.3838 32.7311 42.484 32.6914 42.5842C32.6914 42.5842 32.6914 42.6043 32.6716 42.6043C32.612 42.7045 32.5724 42.8047 32.5128 42.9049C32.5128 42.9249 32.493 42.9249 32.493 42.945C32.4335 43.0252 32.3938 43.0853 32.3342 43.1655C32.3144 43.1855 32.2946 43.2055 32.2747 43.2256C32.235 43.2857 32.1755 43.3258 32.116 43.3859C32.0961 43.406 32.0763 43.426 32.0564 43.446C31.9771 43.5062 31.8977 43.5663 31.8183 43.6064L33.6836 42.504C33.763 42.464 33.8423 42.4038 33.9217 42.3437C33.9416 42.3237 33.9614 42.3036 33.9812 42.2836C34.0408 42.2435 34.0805 42.1834 34.14 42.1232C34.1598 42.1032 34.1797 42.0831 34.1995 42.0631C34.259 42.003 34.3186 41.9228 34.3583 41.8426C34.3583 41.8226 34.3781 41.8226 34.3781 41.8026C34.4376 41.7224 34.4773 41.6222 34.5369 41.522C34.5369 41.522 34.5369 41.522 34.5369 41.5019C34.5369 41.5019 34.5369 41.4819 34.5567 41.4819C34.5765 41.4217 34.6162 41.3616 34.6361 41.2814C34.6559 41.2414 34.6559 41.2213 34.6758 41.1812C34.6758 41.1612 34.6956 41.1411 34.6956 41.1211C34.6956 41.1011 34.7154 41.081 34.7154 41.061C34.7353 40.9808 34.7551 40.9207 34.775 40.8405C34.775 40.8205 34.7948 40.7804 34.7948 40.7603C34.7948 40.7403 34.7948 40.7403 34.7948 40.7202C34.7948 40.7002 34.8147 40.6601 34.8147 40.6401C34.8345 40.5799 34.8345 40.4998 34.8543 40.4396C34.8543 40.3996 34.8543 40.3595 34.8742 40.3194C34.8742 40.2994 34.8742 40.2994 34.8742 40.2793C34.8742 40.2593 34.8742 40.2392 34.8742 40.2392C34.8742 40.1791 34.8742 40.119 34.894 40.0388C34.894 39.9787 34.894 39.8985 34.894 39.8384C34.894 39.8384 34.894 39.8384 34.894 39.8183C34.894 39.8183 34.894 39.7582 34.894 39.6981Z" fill="url(#paint17_linear)"/>
<path d="M28.941 33.7264C31.223 35.0492 33.0684 38.2961 33.0684 40.9417C33.0684 43.5874 31.2032 44.6697 28.9212 43.3268C26.6392 42.004 24.7938 38.7771 24.7938 36.1115C24.7938 33.4658 26.6392 32.4036 28.941 33.7264Z" fill="#BAC1C5"/>
<path d="M30.7864 39.3373C30.7864 39.2973 30.7864 39.2772 30.7864 39.2371C30.7864 39.2171 30.7864 39.2171 30.7864 39.197V39.177C30.7864 39.157 30.7864 39.157 30.7864 39.1369C30.7864 39.0968 30.7864 39.0768 30.7666 39.0367C30.7666 38.9966 30.7666 38.9766 30.7467 38.9365C30.7467 38.8964 30.7269 38.8764 30.7269 38.8363C30.7269 38.7962 30.707 38.7761 30.707 38.7361C30.707 38.716 30.707 38.716 30.707 38.696V38.6759C30.707 38.6559 30.707 38.6358 30.6872 38.6358C30.6872 38.5958 30.6673 38.5757 30.6673 38.5356C30.6673 38.5156 30.6475 38.4956 30.6475 38.4555V38.4354C30.6475 38.4354 30.6475 38.4354 30.6475 38.4154C30.6277 38.3753 30.6277 38.3553 30.6078 38.3152C30.588 38.2751 30.588 38.255 30.5681 38.215V38.1949V38.1749C30.5681 38.1548 30.5483 38.1348 30.5483 38.1147C30.5284 38.0747 30.5284 38.0546 30.5086 38.0145C30.5086 37.9945 30.4888 37.9744 30.4888 37.9544C30.4888 37.9544 30.4888 37.9544 30.4888 37.9344C30.4888 37.9344 30.4888 37.9344 30.4888 37.9143C30.4689 37.8742 30.4689 37.8542 30.4491 37.8141C30.4292 37.774 30.4094 37.754 30.4094 37.7139C30.4094 37.7139 30.4094 37.7139 30.4094 37.6938V37.6738C30.3895 37.6538 30.3895 37.6137 30.3697 37.5936C30.3499 37.5535 30.33 37.5335 30.3102 37.4934C30.3102 37.4734 30.2903 37.4734 30.2903 37.4533C30.2903 37.4533 30.2903 37.4333 30.2705 37.4333C30.2506 37.4132 30.2308 37.3732 30.2109 37.3531C30.1911 37.313 30.1713 37.2729 30.1316 37.2329C30.1316 37.2329 30.1316 37.2128 30.1117 37.2128C30.072 37.1527 30.0324 37.0926 29.9927 37.0324C29.9728 36.9924 29.9331 36.9523 29.9133 36.9122C29.8935 36.8721 29.8736 36.8521 29.8339 36.812C29.8141 36.7919 29.7942 36.7518 29.7546 36.7318C29.7347 36.7118 29.7149 36.6717 29.6752 36.6516C29.6752 36.6516 29.6752 36.6516 29.6553 36.6316C29.6553 36.6316 29.6553 36.6316 29.6355 36.6115C29.6156 36.5915 29.5958 36.5715 29.576 36.5514C29.5561 36.5314 29.5164 36.4913 29.4966 36.4712L29.4767 36.4512L29.4569 36.4312C29.4371 36.4111 29.4371 36.4111 29.4172 36.3911C29.3974 36.371 29.3577 36.351 29.3378 36.3109C29.318 36.2909 29.318 36.2909 29.2982 36.2708C29.2982 36.2708 29.2783 36.2708 29.2783 36.2508C29.2783 36.2508 29.2585 36.2307 29.2386 36.2307C29.2188 36.2107 29.1791 36.1906 29.1593 36.1706C29.1394 36.1506 29.1196 36.1305 29.0997 36.1305C29.0997 36.1305 29.0997 36.1305 29.0799 36.1305C29.06 36.1105 29.0203 36.0904 29.0005 36.0704C28.9807 36.0504 28.941 36.0303 28.9211 36.0303C28.9211 36.0303 28.9013 36.0303 28.9013 36.0103C28.8814 35.9902 28.8616 35.9902 28.8418 35.9702C28.8219 35.9501 28.7822 35.9501 28.7624 35.9301C28.7425 35.9301 28.7227 35.9101 28.7029 35.9101H28.683C28.6632 35.89 28.6235 35.89 28.6036 35.87C28.5838 35.87 28.5441 35.8499 28.5243 35.8499C28.5243 35.8499 28.5243 35.8499 28.5044 35.8499C28.5044 35.8499 28.5044 35.8499 28.4846 35.8499C28.4647 35.8499 28.4449 35.8299 28.425 35.8299C28.4052 35.8299 28.3655 35.8098 28.3457 35.8098C28.3258 35.8098 28.3258 35.8098 28.306 35.8098H28.2861H28.2663C28.2465 35.8098 28.2068 35.7898 28.1869 35.7898C28.1671 35.7898 28.1472 35.7898 28.1472 35.7898H28.1274H28.1076C28.0679 35.7898 28.048 35.7898 28.0083 35.7898C27.9885 35.7898 27.9885 35.7898 27.9687 35.7898C27.9488 35.7898 27.9488 35.7898 27.929 35.7898H27.9091C27.8694 35.7898 27.8297 35.7898 27.7901 35.8098C27.7702 35.8098 27.7504 35.8098 27.7504 35.8299C27.7305 35.8299 27.6908 35.8499 27.671 35.8499C27.671 35.8499 27.6512 35.8499 27.6512 35.87C27.6115 35.89 27.5718 35.9101 27.5321 35.9301L26.6788 36.4312C26.7185 36.4111 26.7582 36.3911 26.7979 36.371C26.7979 36.371 26.7979 36.371 26.8177 36.371C26.8574 36.351 26.8971 36.351 26.9368 36.3309H26.9566C26.9963 36.3309 27.0559 36.3109 27.0955 36.3109H27.1154C27.1551 36.3109 27.2146 36.3109 27.2543 36.3109H27.2741C27.3337 36.3109 27.3734 36.3309 27.4329 36.3309H27.4527C27.5123 36.351 27.5718 36.351 27.6115 36.371C27.6115 36.371 27.6115 36.371 27.6313 36.371C27.6908 36.3911 27.7504 36.4111 27.8099 36.4512C27.8099 36.4512 27.8099 36.4512 27.8297 36.4512C27.8893 36.4712 27.9488 36.5113 28.0083 36.5514C28.0679 36.5915 28.1274 36.6316 28.2068 36.6717C28.2068 36.6717 28.2266 36.6717 28.2266 36.6917C28.2861 36.7318 28.3457 36.7719 28.3854 36.812L28.4052 36.832C28.4647 36.8721 28.5044 36.9322 28.564 36.9723L28.5838 36.9924C28.6433 37.0525 28.683 37.0926 28.7425 37.1527C28.7425 37.1527 28.7425 37.1527 28.7624 37.1727C28.8219 37.2329 28.8616 37.293 28.9211 37.3531C28.9211 37.3531 28.9211 37.3531 28.9211 37.3732C28.9807 37.4333 29.0203 37.4934 29.0799 37.5736C29.0799 37.5736 29.0799 37.5936 29.0997 37.5936C29.1394 37.6538 29.1791 37.7139 29.2188 37.774C29.2386 37.8141 29.2783 37.8542 29.2982 37.8943C29.318 37.9344 29.3378 37.9544 29.3577 37.9945C29.3775 38.0145 29.3775 38.0346 29.3974 38.0546C29.4371 38.1147 29.4569 38.1749 29.4966 38.235C29.4966 38.235 29.4966 38.255 29.5164 38.255C29.5561 38.3352 29.5958 38.3953 29.6156 38.4755C29.6156 38.4755 29.6156 38.4755 29.6156 38.4956C29.6553 38.5757 29.6752 38.6358 29.7149 38.716C29.7149 38.716 29.7149 38.716 29.7149 38.7361C29.7347 38.8162 29.7744 38.8964 29.7942 38.9565V38.9766C29.8141 39.0567 29.8339 39.1169 29.8538 39.197V39.2171C29.8736 39.2973 29.8935 39.3774 29.8935 39.4376C29.9133 39.5177 29.9133 39.5979 29.9133 39.658V39.6781C29.9133 39.7582 29.9133 39.8184 29.9133 39.8985C29.9133 39.9787 29.9133 40.0388 29.8935 40.119V40.139C29.8935 40.1992 29.8736 40.2593 29.8736 40.3194V40.3395C29.8538 40.3996 29.8538 40.4597 29.8339 40.4998V40.5199C29.8141 40.5599 29.7942 40.6201 29.7744 40.6602C29.7744 40.6602 29.7744 40.6602 29.7744 40.6802C29.7546 40.7203 29.7347 40.7804 29.695 40.8205C29.695 40.8205 29.695 40.8405 29.6752 40.8405C29.6553 40.8806 29.6355 40.9007 29.5958 40.9408C29.5958 40.9608 29.576 40.9608 29.576 40.9808C29.5561 41.0009 29.5363 41.0209 29.4966 41.061C29.4767 41.061 29.4767 41.0811 29.4569 41.0811C29.4172 41.1011 29.3775 41.1412 29.3378 41.1612L30.1911 40.6602C30.2308 40.6401 30.2705 40.6201 30.3102 40.58C30.33 40.58 30.33 40.5599 30.3499 40.5599C30.3697 40.5399 30.4094 40.5199 30.4292 40.4798C30.4292 40.4597 30.4491 40.4597 30.4491 40.4397C30.4689 40.3996 30.5086 40.3796 30.5284 40.3395C30.5284 40.3395 30.5284 40.3194 30.5483 40.3194C30.5681 40.2793 30.6078 40.2393 30.6277 40.1791C30.6277 40.1791 30.6277 40.1791 30.6277 40.1591C30.6475 40.139 30.6475 40.099 30.6673 40.0589C30.6673 40.0388 30.6872 40.0188 30.6872 40.0188V39.9987V39.9787C30.6872 39.9386 30.707 39.9186 30.707 39.8785C30.707 39.8585 30.707 39.8584 30.707 39.8384V39.8184C30.707 39.7983 30.707 39.7983 30.707 39.7783C30.707 39.7582 30.707 39.7182 30.7269 39.6781C30.7269 39.658 30.7269 39.638 30.7269 39.6179V39.5979V39.5779C30.7269 39.5378 30.7269 39.5177 30.7269 39.4776C30.7269 39.4576 30.7269 39.4175 30.7269 39.3774C30.8063 39.3975 30.8063 39.3774 30.7864 39.3373Z" fill="url(#paint18_linear)"/>
<path d="M28 36.4949C29.0517 37.1163 29.905 38.5994 29.905 39.822C29.905 41.0446 29.0517 41.5457 28 40.9244C26.9483 40.303 26.095 38.8199 26.095 37.5973C26.095 36.3747 26.9483 35.8736 28 36.4949Z" fill="#F4FAFA"/>
<path d="M48.5 61.4949L44 64.4949L34.4355 59.5295L39.1484 56.7572L48.5 61.4949Z" fill="url(#paint19_linear)"/>
<path d="M39.1485 51.6285L34.4356 54.4008L30 51.6285V56.7573C30 56.8959 30 57.0345 30.1386 57.0345L34.0198 59.2523C34.297 59.3909 34.5743 59.3909 34.8515 59.2523L38.8713 56.8959C39.0099 56.8959 39.0099 56.7573 39.0099 56.6186V51.6285H39.1485Z" fill="url(#paint20_linear)"/>
<path d="M34.5743 54.2622L30 51.6285V56.7573C30 56.8959 30 57.0345 30.1386 57.0345L34.0198 59.2523C34.1584 59.2523 34.297 59.3909 34.5743 59.3909V54.2622Z" fill="url(#paint21_linear)"/>
<path d="M34.99 49.1335L39.0098 51.4899C39.1485 51.6285 39.1485 51.9058 39.0098 52.0444L34.99 54.2622C34.7128 54.4008 34.4356 54.4008 34.297 54.2622L30.2772 51.9058C30.1386 51.7672 30.1386 51.4899 30.2772 51.3513L34.297 48.9949C34.4356 48.9949 34.7128 48.9949 34.99 49.1335Z" fill="url(#paint22_linear)"/>
<path d="M72 52.4998L68.4 56.0698L64.1 54.3698L63.8 54.1698L62.1 53.5698L65.5 51.5698L67.9 51.8698H68.3L72 52.4998Z" fill="url(#paint23_linear)"/>
<path d="M65.5 47.8699L62.2 49.7699L59 47.8699V51.5699C59 51.6699 59 51.7699 59.1 51.7699L61.9 53.3699C62.1 53.4699 62.3 53.4699 62.5 53.3699L65.4 51.6699C65.5 51.6699 65.5 51.5699 65.5 51.4699V47.8699Z" fill="url(#paint24_linear)"/>
<path d="M62.3 49.7699L59 47.8699V51.5699C59 51.6699 59 51.7699 59.1 51.7699L61.9 53.3699C62 53.3699 62.1 53.4699 62.3 53.4699V49.7699Z" fill="url(#paint25_linear)"/>
<path d="M62.5 46.0699L65.4 47.7699C65.5 47.8699 65.5 48.0699 65.4 48.1699L62.5 49.8699C62.3 49.9699 62.1 49.9699 62 49.8699L59.1 48.1699C59 48.0699 59 47.8699 59.1 47.7699L62 46.0699C62.1 45.9699 62.4 45.9699 62.5 46.0699Z" fill="url(#paint26_linear)"/>
<path d="M18.2 42.8699V45.6699L15.4 44.4699H15.2L14.1 43.9699L16.3 42.6699L17.9 42.8699H18.1H18.2Z" fill="url(#paint27_linear)"/>
<path d="M16.3 40.2699L14.1 41.5699L12 40.2699V42.7699C12 42.8699 12 42.8699 12.1 42.8699L14 43.9699C14.1 44.0699 14.3 44.0699 14.4 43.9699L16.3 42.8699L16.4 42.7699V40.2699H16.3Z" fill="url(#paint28_linear)"/>
<path d="M14.2 41.5699L12 40.2699V42.7699C12 42.8699 12 42.8699 12.1 42.8699L14 43.9699C14.1 43.9699 14.1 44.0699 14.2 44.0699V41.5699Z" fill="url(#paint29_linear)"/>
<path d="M14.4 39.0699L16.3 40.1699C16.4 40.2699 16.4 40.3699 16.3 40.3699L14.4 41.4699C14.3 41.5699 14.2 41.5699 14 41.4699L12.1 40.3699C12 40.2699 12 40.1699 12.1 40.1699L14 39.0699C14.1 38.9699 14.3 38.9699 14.4 39.0699Z" fill="url(#paint30_linear)"/>
<defs>
<linearGradient id="paint0_linear" x1="45.3549" y1="73.4836" x2="45.1396" y2="50.6291" gradientUnits="userSpaceOnUse">
<stop stop-color="#CBD7DC"/>
<stop offset="0.3447" stop-color="#BFCCD2"/>
<stop offset="0.9416" stop-color="#A6B2B8"/>
<stop offset="1" stop-color="#A6B2B8"/>
</linearGradient>
<linearGradient id="paint1_linear" x1="6.6545" y1="59.981" x2="44.8387" y2="59.981" gradientUnits="userSpaceOnUse">
<stop offset="0.274" stop-color="#E4EBEE"/>
<stop offset="0.733835" stop-color="#DBE4E6"/>
<stop offset="0.961356" stop-color="#C4D0D6"/>
</linearGradient>
<linearGradient id="paint2_linear" x1="3.98772" y1="43.0002" x2="86.0028" y2="43.0002" gradientUnits="userSpaceOnUse">
<stop stop-color="#CCD9DE"/>
<stop offset="0.4517" stop-color="#D6E2E6"/>
<stop offset="1" stop-color="#DFEAED"/>
</linearGradient>
<linearGradient id="paint3_linear" x1="72.0802" y1="39.6455" x2="77.9951" y2="49.8903" gradientUnits="userSpaceOnUse">
<stop stop-color="#BAC1C5"/>
<stop offset="0.00997298" stop-color="#BAC1C5" stop-opacity="0.9874"/>
<stop offset="0.4287" stop-color="#ACBACE" stop-opacity="0.4603"/>
<stop offset="0.7944" stop-color="#A7B8D1" stop-opacity="0"/>
</linearGradient>
<linearGradient id="paint4_linear" x1="67.3496" y1="41.5944" x2="67.2448" y2="30.4692" gradientUnits="userSpaceOnUse">
<stop stop-color="#E4EBEE"/>
<stop offset="0.3447" stop-color="#D9E0E4"/>
<stop offset="0.9416" stop-color="#BDC4C8"/>
<stop offset="1" stop-color="#BAC1C5"/>
</linearGradient>
<linearGradient id="paint5_linear" x1="61.4779" y1="34.9571" x2="67.2231" y2="34.9571" gradientUnits="userSpaceOnUse">
<stop offset="0.1689" stop-color="#F5F9FA"/>
<stop offset="0.5201" stop-color="#F1F6F7"/>
<stop offset="0.6882" stop-color="#ECF2F4"/>
<stop offset="0.8022" stop-color="#EAF0F3"/>
<stop offset="0.9424" stop-color="#EAF0F5" stop-opacity="0.4286"/>
<stop offset="0.9929" stop-color="#EBEFFC" stop-opacity="0.223"/>
<stop offset="0.9985" stop-color="#EBEFFD" stop-opacity="0.2"/>
</linearGradient>
<linearGradient id="paint6_linear" x1="61.0785" y1="26.6705" x2="73.4428" y2="26.6705" gradientUnits="userSpaceOnUse">
<stop stop-color="#E4EBEE"/>
<stop offset="0.4517" stop-color="#F0F6F7"/>
<stop offset="1" stop-color="#FBFFFF"/>
</linearGradient>
<linearGradient id="paint7_linear" x1="69.7869" y1="26.7795" x2="72.4202" y2="31.3403" gradientUnits="userSpaceOnUse">
<stop stop-color="#BAC1C5"/>
<stop offset="0.00997298" stop-color="#BAC1C5" stop-opacity="0.9874"/>
<stop offset="0.4287" stop-color="#ACBACE" stop-opacity="0.4603"/>
<stop offset="0.7944" stop-color="#A7B8D1" stop-opacity="0"/>
</linearGradient>
<linearGradient id="paint8_linear" x1="67.3844" y1="28.0014" x2="67.3487" y2="24.2085" gradientUnits="userSpaceOnUse">
<stop stop-color="#E4EBEE"/>
<stop offset="0.3447" stop-color="#D9E0E4"/>
<stop offset="0.9416" stop-color="#BDC4C8"/>
<stop offset="1" stop-color="#BAC1C5"/>
</linearGradient>
<linearGradient id="paint9_linear" x1="64.2725" y1="25.7425" x2="67.33" y2="25.7425" gradientUnits="userSpaceOnUse">
<stop offset="0.1689" stop-color="#F5F9FA"/>
<stop offset="0.5201" stop-color="#F1F6F7"/>
<stop offset="0.6882" stop-color="#ECF2F4"/>
<stop offset="0.8022" stop-color="#EAF0F3"/>
<stop offset="0.9424" stop-color="#EAF0F5" stop-opacity="0.4286"/>
<stop offset="0.9929" stop-color="#EBEFFC" stop-opacity="0.223"/>
<stop offset="0.9985" stop-color="#EBEFFD" stop-opacity="0.2"/>
</linearGradient>
<linearGradient id="paint10_linear" x1="64.0599" y1="22.929" x2="70.6401" y2="22.929" gradientUnits="userSpaceOnUse">
<stop stop-color="#E4EBEE"/>
<stop offset="0.4517" stop-color="#F0F6F7"/>
<stop offset="1" stop-color="#FBFFFF"/>
</linearGradient>
<linearGradient id="paint11_linear" x1="33.5" y1="42.9949" x2="74.6712" y2="65.107" gradientUnits="userSpaceOnUse">
<stop stop-color="#BAC1C5"/>
<stop offset="0.00997298" stop-color="#BAC1C5" stop-opacity="0.9874"/>
<stop offset="0.4287" stop-color="#ACBACE" stop-opacity="0.4603"/>
<stop offset="0.7944" stop-color="#A7B8D1" stop-opacity="0"/>
</linearGradient>
<linearGradient id="paint12_linear" x1="55.9876" y1="17.3304" x2="56.5" y2="28.9949" gradientUnits="userSpaceOnUse">
<stop offset="0.0337762" stop-color="#686870"/>
<stop offset="1" stop-color="#A4A8AB"/>
</linearGradient>
<linearGradient id="paint13_linear" x1="49" y1="18.9949" x2="57" y2="31.4949" gradientUnits="userSpaceOnUse">
<stop stop-color="#54545C"/>
<stop offset="0.238379" stop-color="#37373D"/>
<stop offset="1" stop-color="#54545C"/>
</linearGradient>
<linearGradient id="paint14_linear" x1="32.9915" y1="29.2759" x2="32.9915" y2="43.8068" gradientUnits="userSpaceOnUse">
<stop stop-color="#62626B"/>
<stop offset="0.24409" stop-color="#37373D"/>
<stop offset="0.620625" stop-color="#62626B"/>
<stop offset="1" stop-color="#37373D"/>
</linearGradient>
<linearGradient id="paint15_linear" x1="48.5" y1="11.4949" x2="30.5" y2="32.9949" gradientUnits="userSpaceOnUse">
<stop stop-color="#BAC1C5"/>
<stop offset="0.467515" stop-color="#E4EBEE"/>
<stop offset="1" stop-color="#BAC1C5"/>
</linearGradient>
<linearGradient id="paint16_linear" x1="41.988" y1="12.9213" x2="34.5" y2="35.9949" gradientUnits="userSpaceOnUse">
<stop stop-color="#BAC1C5"/>
<stop offset="1" stop-color="#62626B"/>
</linearGradient>
<linearGradient id="paint17_linear" x1="27.5" y1="31.9949" x2="30.4392" y2="43.6064" gradientUnits="userSpaceOnUse">
<stop stop-color="#BAC1C5"/>
<stop offset="0.366526" stop-color="#8A8A8B"/>
<stop offset="0.757428" stop-color="#62626B"/>
<stop offset="1" stop-color="#BAC1C5"/>
</linearGradient>
<linearGradient id="paint18_linear" x1="26" y1="36.9949" x2="28.7381" y2="41.1612" gradientUnits="userSpaceOnUse">
<stop offset="0.219648" stop-color="#E4EBEE"/>
<stop offset="0.469788" stop-color="#BAC1C5"/>
<stop offset="0.722123" stop-color="#D4D8DB"/>
<stop offset="1" stop-color="#D1D8DB"/>
</linearGradient>
<linearGradient id="paint19_linear" x1="37.9282" y1="57.0465" x2="41.5782" y2="63.3684" gradientUnits="userSpaceOnUse">
<stop stop-color="#BAC1C5"/>
<stop offset="0.00997298" stop-color="#BAC1C5" stop-opacity="0.9874"/>
<stop offset="0.4287" stop-color="#ACBACE" stop-opacity="0.4603"/>
<stop offset="0.7944" stop-color="#A7B8D1" stop-opacity="0"/>
</linearGradient>
<linearGradient id="paint20_linear" x1="34.598" y1="58.7401" x2="34.5485" y2="53.4826" gradientUnits="userSpaceOnUse">
<stop stop-color="#E4EBEE"/>
<stop offset="0.3447" stop-color="#D9E0E4"/>
<stop offset="0.9416" stop-color="#BDC4C8"/>
<stop offset="1" stop-color="#BAC1C5"/>
</linearGradient>
<linearGradient id="paint21_linear" x1="30.2843" y1="55.609" x2="34.5226" y2="55.609" gradientUnits="userSpaceOnUse">
<stop offset="0.1689" stop-color="#F5F9FA"/>
<stop offset="0.5201" stop-color="#F1F6F7"/>
<stop offset="0.6882" stop-color="#ECF2F4"/>
<stop offset="0.8022" stop-color="#EAF0F3"/>
<stop offset="0.9424" stop-color="#EAF0F5" stop-opacity="0.4286"/>
<stop offset="0.9929" stop-color="#EBEFFC" stop-opacity="0.223"/>
<stop offset="0.9985" stop-color="#EBEFFD" stop-opacity="0.2"/>
</linearGradient>
<linearGradient id="paint22_linear" x1="29.9897" y1="51.7091" x2="39.1109" y2="51.7091" gradientUnits="userSpaceOnUse">
<stop stop-color="#E4EBEE"/>
<stop offset="0.4517" stop-color="#F0F6F7"/>
<stop offset="1" stop-color="#FBFFFF"/>
</linearGradient>
<linearGradient id="paint23_linear" x1="64.6904" y1="51.7487" x2="67.3236" y2="56.3095" gradientUnits="userSpaceOnUse">
<stop stop-color="#BAC1C5"/>
<stop offset="0.00997298" stop-color="#BAC1C5" stop-opacity="0.9874"/>
<stop offset="0.4287" stop-color="#ACBACE" stop-opacity="0.4603"/>
<stop offset="0.7944" stop-color="#A7B8D1" stop-opacity="0"/>
</linearGradient>
<linearGradient id="paint24_linear" x1="62.2878" y1="52.9706" x2="62.252" y2="49.1777" gradientUnits="userSpaceOnUse">
<stop stop-color="#E4EBEE"/>
<stop offset="0.3447" stop-color="#D9E0E4"/>
<stop offset="0.9416" stop-color="#BDC4C8"/>
<stop offset="1" stop-color="#BAC1C5"/>
</linearGradient>
<linearGradient id="paint25_linear" x1="59.1758" y1="50.7117" x2="62.2334" y2="50.7117" gradientUnits="userSpaceOnUse">
<stop offset="0.1689" stop-color="#F5F9FA"/>
<stop offset="0.5201" stop-color="#F1F6F7"/>
<stop offset="0.6882" stop-color="#ECF2F4"/>
<stop offset="0.8022" stop-color="#EAF0F3"/>
<stop offset="0.9424" stop-color="#EAF0F5" stop-opacity="0.4286"/>
<stop offset="0.9929" stop-color="#EBEFFC" stop-opacity="0.223"/>
<stop offset="0.9985" stop-color="#EBEFFD" stop-opacity="0.2"/>
</linearGradient>
<linearGradient id="paint26_linear" x1="58.9633" y1="47.8982" x2="65.5435" y2="47.8982" gradientUnits="userSpaceOnUse">
<stop stop-color="#E4EBEE"/>
<stop offset="0.4517" stop-color="#F0F6F7"/>
<stop offset="1" stop-color="#FBFFFF"/>
</linearGradient>
<linearGradient id="paint27_linear" x1="15.7828" y1="42.8165" x2="17.5107" y2="45.8093" gradientUnits="userSpaceOnUse">
<stop stop-color="#BAC1C5"/>
<stop offset="0.00997298" stop-color="#BAC1C5" stop-opacity="0.9874"/>
<stop offset="0.4287" stop-color="#ACBACE" stop-opacity="0.4603"/>
<stop offset="0.7944" stop-color="#A7B8D1" stop-opacity="0"/>
</linearGradient>
<linearGradient id="paint28_linear" x1="14.2062" y1="43.616" x2="14.1828" y2="41.1272" gradientUnits="userSpaceOnUse">
<stop stop-color="#E4EBEE"/>
<stop offset="0.3447" stop-color="#D9E0E4"/>
<stop offset="0.9416" stop-color="#BDC4C8"/>
<stop offset="1" stop-color="#BAC1C5"/>
</linearGradient>
<linearGradient id="paint29_linear" x1="12.1642" y1="42.1337" x2="14.1706" y2="42.1337" gradientUnits="userSpaceOnUse">
<stop offset="0.1689" stop-color="#F5F9FA"/>
<stop offset="0.5201" stop-color="#F1F6F7"/>
<stop offset="0.6882" stop-color="#ECF2F4"/>
<stop offset="0.8022" stop-color="#EAF0F3"/>
<stop offset="0.9424" stop-color="#EAF0F5" stop-opacity="0.4286"/>
<stop offset="0.9929" stop-color="#EBEFFC" stop-opacity="0.223"/>
<stop offset="0.9985" stop-color="#EBEFFD" stop-opacity="0.2"/>
</linearGradient>
<linearGradient id="paint30_linear" x1="12.0247" y1="40.2875" x2="16.3427" y2="40.2875" gradientUnits="userSpaceOnUse">
<stop stop-color="#E4EBEE"/>
<stop offset="0.4517" stop-color="#F0F6F7"/>
<stop offset="1" stop-color="#FBFFFF"/>
</linearGradient>
</defs>
</svg>
