<svg width="16" height="16" viewBox="0 0 16 16" fill="none" xmlns="http://www.w3.org/2000/svg">
<path d="M10.7717 4.90107C10.945 4.81219 11.1534 4.82784 11.3113 4.94159C12.1102 5.51621 13.0324 5.86059 14.0042 5.95102V4.46889C12.1942 4.23533 10.7564 2.79752 10.5228 0.9875H9.01667M10.7717 4.90107C10.7718 4.90106 10.7718 4.90105 10.7718 4.90105L10.7946 4.94556L10.7717 4.90107ZM10.7717 4.90107C10.5985 4.98972 10.4897 5.16805 10.4897 5.36267V10.7615C10.4897 13.1054 8.5825 15.0125 6.23853 15.0125C3.89456 15.0125 1.9875 13.1054 1.9875 10.7615C1.9875 8.59307 3.61962 6.79842 5.71978 6.54182M5.71978 6.54182V8.03188M5.71978 6.54182C5.73641 6.53979 5.75308 6.53786 5.76978 6.53602V8.07361M5.71978 6.54182V6.49146L9.01667 0.9375V0.9875M5.71978 8.03188C4.43496 8.27556 3.4605 9.40664 3.4605 10.7615C3.4605 12.2934 4.70664 13.5396 6.23853 13.5396C7.77054 13.5396 9.01667 12.2934 9.01667 10.7615V0.9875M5.71978 8.03188C5.73355 8.02927 5.74736 8.02676 5.76121 8.02435L5.76978 8.07361M5.71978 8.03188V8.07361H5.76978M9.01667 0.9875H8.96667V10.7615C8.96667 12.2657 7.74292 13.4896 6.23853 13.4896C4.73425 13.4896 3.5105 12.2657 3.5105 10.7615C3.5105 9.41687 4.48804 8.29651 5.76978 8.07361M14.5229 3.46453C12.8711 3.46453 11.5272 2.12058 11.5272 0.46875C11.5272 0.182216 11.2948 -0.05 11.0084 -0.05H8.49792C8.2114 -0.05 7.97917 0.182225 7.97917 0.46875V10.7615C7.97917 11.7212 7.19834 12.502 6.23853 12.502C5.27883 12.502 4.498 11.7212 4.498 10.7615C4.498 9.80166 5.27884 9.02083 6.23853 9.02083C6.52505 9.02083 6.75728 8.7886 6.75728 8.50208V5.99158C6.75728 5.70518 6.52506 5.47283 6.23853 5.47283C3.32236 5.47283 0.95 7.84531 0.95 10.7615C0.95 13.6776 3.32236 16.05 6.23853 16.05C9.15469 16.05 11.5272 13.6776 11.5272 10.7615V6.28817C12.4483 6.76431 13.4682 7.01252 14.5229 7.01252C14.8095 7.01252 15.0417 6.7803 15.0417 6.49377V3.98328C15.0417 3.69688 14.8095 3.46453 14.5229 3.46453Z" fill="#62626B" stroke="#62626B" stroke-width="0.1"/>
</svg>
